<svg width="16" height="19" viewBox="0 0 16 19" fill="none" xmlns="http://www.w3.org/2000/svg">
<path d="M7.86438 10.5C11.586 10.5 14.4285 12.7257 15.5851 15.8525C15.8915 16.681 15.6834 17.4954 15.1945 18.0781C14.7159 18.6483 13.9729 18.9999 13.1681 19H2.56165C1.75666 18.9999 1.01288 18.6485 0.534302 18.0781C0.0454221 17.4954 -0.162697 16.681 0.143677 15.8525C1.30018 12.7257 4.14294 10.5001 7.86438 10.5ZM7.86438 0C10.3497 1.08235e-05 12.3644 2.01473 12.3644 4.5C12.3644 6.98527 10.3497 8.99999 7.86438 9C5.37927 8.99982 3.36438 6.98517 3.36438 4.5C3.36438 2.01483 5.37927 0.000181414 7.86438 0Z" fill="#FA4616"/>
</svg>
