<svg width="16" height="19" viewBox="0 0 16 19" fill="none" xmlns="http://www.w3.org/2000/svg">
<path fill-rule="evenodd" clip-rule="evenodd" d="M7.86443 10.5C11.586 10.5 14.4286 12.7257 15.5851 15.8525C15.8916 16.681 15.6835 17.4954 15.1945 18.0781C14.716 18.6483 13.9729 18.9999 13.1681 19H2.5617C1.75672 18.9999 1.01293 18.6485 0.534352 18.0781C0.0454726 17.4954 -0.162646 16.681 0.143727 15.8525C1.30023 12.7257 4.14299 10.5001 7.86443 10.5ZM7.86443 12C4.80409 12.0001 2.50149 13.8031 1.55095 16.373C1.44864 16.6498 1.50806 16.9048 1.68377 17.1143C1.8699 17.3359 2.18854 17.4999 2.5617 17.5H13.1681C13.5414 17.4999 13.86 17.3359 14.0461 17.1143C14.2218 16.9048 14.2812 16.6498 14.1789 16.373C13.2283 13.8029 10.925 12 7.86443 12ZM7.86443 0C10.3497 1.08235e-05 12.3644 2.01473 12.3644 4.5C12.3644 6.98527 10.3497 8.99999 7.86443 9C5.37932 8.99982 3.36443 6.98517 3.36443 4.5C3.36443 2.01483 5.37932 0.000181414 7.86443 0ZM7.86443 1.5C6.20775 1.50018 4.86443 2.84325 4.86443 4.5C4.86443 6.15675 6.20775 7.49982 7.86443 7.5C9.5213 7.49999 10.8644 6.15685 10.8644 4.5C10.8644 2.84315 9.5213 1.50001 7.86443 1.5Z" fill="#6E6E6E"/>
</svg>
