<svg width="16" height="12" viewBox="0 0 16 12" fill="none" xmlns="http://www.w3.org/2000/svg">
<path d="M9.20703 0.232422C9.49292 -0.0670779 9.96793 -0.0786095 10.2676 0.207031L15.7676 5.45703C15.9158 5.59855 16 5.79506 16 6C16 6.20493 15.9158 6.40147 15.7676 6.54297L10.2676 11.793C9.96795 12.0786 9.49291 12.067 9.20703 11.7676C8.9214 11.4679 8.93296 10.9929 9.23242 10.707L13.3779 6.75H0.75C0.335813 6.75 4.38059e-05 6.41418 0 6C0 5.58579 0.335786 5.25 0.75 5.25H13.3779L9.23242 1.29297C8.93294 1.0071 8.92143 0.532069 9.20703 0.232422Z" fill="#6E6E6E"/>
</svg>
