<svg width="16" height="16" viewBox="0 0 16 16" fill="none" xmlns="http://www.w3.org/2000/svg">
<g clip-path="url(#clip0_541_19074)">
<path d="M8 0C8.74147 0 9.40302 0.337118 9.84273 0.865874C10.073 1.1428 10.3471 1.39406 10.6795 1.53268C11.0125 1.67152 11.3811 1.68592 11.7403 1.6528C12.4252 1.58965 13.1316 1.81928 13.6562 2.34375C14.181 2.86852 14.4105 3.5753 14.3471 4.26052C14.3139 4.61923 14.3283 4.98722 14.4667 5.31981C14.605 5.65206 14.8561 5.92585 15.1329 6.1558C15.6624 6.5956 16 7.25789 16 8C16 8.74199 15.6623 9.40371 15.1329 9.8433C14.856 10.0731 14.605 10.3469 14.4668 10.6791C14.3283 11.0117 14.314 11.3798 14.3473 11.7386C14.4109 12.4241 14.1812 13.1313 13.6562 13.6562C13.1316 14.1808 12.4252 14.4099 11.7402 14.3464C11.381 14.3131 11.0125 14.3275 10.6796 14.4663C10.3471 14.6049 10.0731 14.8563 9.84291 15.1333C9.40331 15.6625 8.74177 16 8 16C7.2581 16 6.59597 15.6626 6.15617 15.1334C5.92592 14.8563 5.65186 14.6049 5.31935 14.4663C4.98644 14.3275 4.61801 14.313 4.25887 14.3463C3.5738 14.4097 2.86731 14.1808 2.34277 13.6562C1.81841 13.1317 1.5887 12.4251 1.65185 11.7401C1.68496 11.381 1.67061 11.0126 1.53221 10.6795C1.39403 10.3471 1.14287 10.073 0.866015 9.84284C0.337178 9.40314 0 8.74154 0 8C0 7.25834 0.337044 6.59616 0.865924 6.15625C1.1428 5.92596 1.39407 5.65193 1.53226 5.31937C1.67062 4.9864 1.68507 4.61806 1.65204 4.259C1.58906 3.57428 1.81862 2.86808 2.34277 2.34375C2.86722 1.8193 3.57375 1.58981 4.25878 1.65291C4.61798 1.686 4.98646 1.67152 5.3194 1.53272C5.65189 1.3941 5.92597 1.14274 6.15635 0.865812C6.59626 0.336997 7.25839 0 8 0Z" fill="#FA4516"/>
<path d="M5 8.5L6.5 10L10.5 6" stroke="white" stroke-width="1.5" stroke-linecap="round" stroke-linejoin="round"/>
</g>
<defs>
<clipPath id="clip0_541_19074">
<rect width="16" height="16" rx="8" fill="white"/>
</clipPath>
</defs>
</svg>
