<svg width="14" height="14" viewBox="0 0 14 14" fill="none" xmlns="http://www.w3.org/2000/svg">
<path d="M11.8867 0.219727C12.1796 -0.0731176 12.6544 -0.0730194 12.9473 0.219727C13.2402 0.51262 13.2402 0.98738 12.9473 1.28027L7.64355 6.58301L12.9473 11.8867C13.2402 12.1796 13.2402 12.6544 12.9473 12.9473C12.6544 13.2402 12.1796 13.2402 11.8867 12.9473L6.58301 7.64355L1.28027 12.9473C0.98738 13.2402 0.51262 13.2402 0.219727 12.9473C-0.0730184 12.6544 -0.0731172 12.1796 0.219727 11.8867L5.52246 6.58301L0.219727 1.28027C-0.0731666 0.98738 -0.0731664 0.51262 0.219727 0.219727C0.51262 -0.0731661 0.98738 -0.0731664 1.28027 0.219727L6.58301 5.52246L11.8867 0.219727Z" fill="#EEEEEE"/>
</svg>
