<svg width="16" height="16" viewBox="0 0 16 16" fill="none" xmlns="http://www.w3.org/2000/svg">
<path d="M13.8184 1.4165C14.0221 1.41255 14.2191 1.49132 14.3633 1.63525C14.5075 1.77949 14.587 1.97721 14.583 2.18115L14.4062 11.1968C14.3979 11.6106 14.0555 11.9392 13.6416 11.9312C13.2277 11.9228 12.8982 11.5805 12.9062 11.1665L13.0469 4.01318L2.69629 14.3638C2.4034 14.6565 1.92859 14.6566 1.63574 14.3638C1.3429 14.0709 1.34299 13.5961 1.63574 13.3032L11.9863 2.95264L4.83301 3.09229C4.41904 3.1004 4.07576 2.77182 4.06738 2.35791C4.05933 1.94399 4.38887 1.60164 4.80273 1.59326L13.8184 1.4165Z" fill="white"/>
</svg>
