<svg width="18" height="18" viewBox="0 0 18 18" fill="none" xmlns="http://www.w3.org/2000/svg">
<path d="M6.20898 0C7.39087 0 8.44301 0.645152 9 1.62793C9.55699 0.645151 10.6091 0 11.791 0H12.25C13.7688 0 15 1.23122 15 2.75C15 3.20759 14.8862 3.638 14.6885 4.01758H16.2402C17.2121 4.0177 17.9999 4.80551 18 5.77734V7.24902C17.9999 8.13248 17.3485 8.86149 16.5 8.9873V15.4404C16.4998 16.8539 15.3539 17.9998 13.9404 18H4.05957C2.64606 17.9998 1.50022 16.8539 1.5 15.4404V8.9873C0.651509 8.86149 0.000115239 8.13248 0 7.24902V5.77734C0.00012651 4.80551 0.78793 4.0177 1.75977 4.01758H3.31152C3.11381 3.638 3 3.20759 3 2.75C3 1.23122 4.23122 0 5.75 0H6.20898ZM3 15.4404C3.00022 16.0255 3.47448 16.4998 4.05957 16.5H8.25V9.00879H3V15.4404ZM9.75 16.5H13.9404C14.5255 16.4998 14.9998 16.0255 15 15.4404V9.00879H9.75V16.5ZM1.75977 5.51758C1.61636 5.5177 1.50013 5.63394 1.5 5.77734V7.24902C1.50013 7.39243 1.61636 7.50866 1.75977 7.50879H8.25V5.51758H1.75977ZM9.75 7.50879H16.2402C16.3836 7.50866 16.4999 7.39243 16.5 7.24902V5.77734C16.4999 5.63394 16.3836 5.5177 16.2402 5.51758H9.75V7.50879ZM5.75 1.5C5.05964 1.5 4.5 2.05964 4.5 2.75C4.5 3.44036 5.05964 4 5.75 4H8.0957L7.88867 2.89453C7.7371 2.08617 7.03144 1.5 6.20898 1.5H5.75ZM11.791 1.5C10.9686 1.5 10.2629 2.08617 10.1113 2.89453L9.9043 4H12.25C12.9404 4 13.5 3.44036 13.5 2.75C13.5 2.05964 12.9404 1.5 12.25 1.5H11.791Z" fill="#6E6E6E"/>
</svg>
