<svg width="22" height="22" viewBox="0 0 22 22" fill="none" xmlns="http://www.w3.org/2000/svg">
<path d="M11 0C11.7358 0 12.4498 0.250352 13.0244 0.709961L20.9678 7.06348C21.6201 7.58526 21.9999 8.37562 22 9.21094V20.25C22 21.2165 21.2165 22 20.25 22H16.25C15.2835 22 14.5 21.2165 14.5 20.25V16.5C14.5 14.567 12.933 13 11 13C9.06701 13 7.50001 14.567 7.5 16.5V20.25C7.5 21.2165 6.7165 22 5.75 22H1.75C0.783502 22 0 21.2165 0 20.25V9.21094C0.000126211 8.37562 0.379909 7.58526 1.03223 7.06348L8.97559 0.709961C9.55022 0.250352 10.2642 0 11 0ZM11 1.5C10.6047 1.5 10.2208 1.63492 9.91211 1.88184L1.96875 8.23535C1.67251 8.47248 1.50013 8.83148 1.5 9.21094V20.25C1.5 20.3881 1.61193 20.5 1.75 20.5H5.75C5.88807 20.5 6 20.3881 6 20.25V16.5C6.00001 13.7386 8.23858 11.5 11 11.5C13.7614 11.5 16 13.7386 16 16.5V20.25C16 20.3881 16.1119 20.5 16.25 20.5H20.25C20.3881 20.5 20.5 20.3881 20.5 20.25V9.21094C20.4999 8.83148 20.3275 8.47248 20.0312 8.23535L12.0879 1.88184C11.7792 1.63492 11.3953 1.5 11 1.5Z" fill="#6E6E6E"/>
<path d="M11 0C11.7358 0 12.4498 0.250352 13.0244 0.709961L20.9678 7.06348C21.6201 7.58526 21.9999 8.37562 22 9.21094V20.25C22 21.2165 21.2165 22 20.25 22H16.25C15.2835 22 14.5 21.2165 14.5 20.25V16.5C14.5 14.567 12.933 13 11 13C9.06701 13 7.50001 14.567 7.5 16.5V20.25C7.5 21.2165 6.7165 22 5.75 22H1.75C0.783502 22 0 21.2165 0 20.25V9.21094C0.000126211 8.37562 0.379909 7.58526 1.03223 7.06348L8.97559 0.709961C9.55022 0.250352 10.2642 0 11 0ZM11 1.5C10.6047 1.5 10.2208 1.63492 9.91211 1.88184L1.96875 8.23535C1.67251 8.47248 1.50013 8.83148 1.5 9.21094V20.25C1.5 20.3881 1.61193 20.5 1.75 20.5H5.75C5.88807 20.5 6 20.3881 6 20.25V16.5C6.00001 13.7386 8.23858 11.5 11 11.5C13.7614 11.5 16 13.7386 16 16.5V20.25C16 20.3881 16.1119 20.5 16.25 20.5H20.25C20.3881 20.5 20.5 20.3881 20.5 20.25V9.21094C20.4999 8.83148 20.3275 8.47248 20.0312 8.23535L12.0879 1.88184C11.7792 1.63492 11.3953 1.5 11 1.5Z" fill="#6E6E6E"/>
</svg>
