<svg width="22" height="22" viewBox="0 0 22 22" fill="none" xmlns="http://www.w3.org/2000/svg">
<path d="M11 0C11.7358 0 12.4498 0.250352 13.0244 0.709961L20.9678 7.06348C21.6201 7.58526 21.9999 8.37562 22 9.21094V20.25C22 21.2165 21.2165 22 20.25 22H16.25C15.2835 22 14.5 21.2165 14.5 20.25V16.5C14.5 14.567 12.933 13 11 13C9.06701 13 7.50001 14.567 7.5 16.5V20.25C7.5 21.2165 6.7165 22 5.75 22H1.75C0.843819 22 0.0982876 21.3113 0.00878906 20.4287L0 20.25V9.21094C0.000126282 8.37562 0.379909 7.58526 1.03223 7.06348L8.97559 0.709961C9.55022 0.250352 10.2642 0 11 0Z" fill="#B4B4B4"/>
<path d="M11 0C11.7358 0 12.4498 0.250352 13.0244 0.709961L20.9678 7.06348C21.6201 7.58526 21.9999 8.37562 22 9.21094V20.25C22 21.2165 21.2165 22 20.25 22H16.25C15.2835 22 14.5 21.2165 14.5 20.25V16.5C14.5 14.567 12.933 13 11 13C9.06701 13 7.50001 14.567 7.5 16.5V20.25C7.5 21.2165 6.7165 22 5.75 22H1.75C0.843819 22 0.0982876 21.3113 0.00878906 20.4287L0 20.25V9.21094C0.000126282 8.37562 0.379909 7.58526 1.03223 7.06348L8.97559 0.709961C9.55022 0.250352 10.2642 0 11 0Z" fill="#FA4616"/>
</svg>
