<svg width="23" height="22" viewBox="0 0 23 22" fill="none" xmlns="http://www.w3.org/2000/svg">
<g clip-path="url(#clip0_922_42001)">
<path d="M2.35176 13.1625C2.05066 12.8611 1.75247 12.5666 1.45833 12.2664C1.05243 11.8519 0.662747 11.4202 0.279433 10.981C0.218635 10.9109 0.184473 10.8338 0.170577 10.7428C0.0605623 10.0186 0.0113454 9.28939 0.027558 8.55573C0.0472447 7.65077 0.124834 6.75217 0.270748 5.86054C0.290435 5.73921 0.340231 5.63115 0.392922 5.52436C0.641902 5.02387 0.964995 4.58215 1.31704 4.16508C2.08714 3.25384 2.96784 2.48478 3.91338 1.80356C4.7605 1.19312 5.64756 0.664827 6.60121 0.277455C6.76102 0.212366 6.92375 0.15486 7.08703 0.098619C7.28734 0.0297385 7.30011 0.0379535 7.38001 0.241434C7.71117 1.08758 8.1003 1.90025 8.5508 2.67815C8.57046 2.71227 8.58958 2.74703 8.60984 2.78052C8.67643 2.88858 8.66139 2.87531 8.75807 2.81907C9.12052 2.60674 9.49113 2.41021 9.8733 2.24591C10.6775 1.90025 11.6115 2.13469 12.1575 3.02318C12.1807 3.0611 12.2021 3.10028 12.227 3.1363C12.2762 3.20897 12.2722 3.24056 12.2033 3.28733C12.1836 3.3006 12.1616 3.30882 12.1407 3.31956C11.5252 3.63489 10.9277 3.98625 10.351 4.37993C10.2571 4.44376 10.1611 4.50443 10.0643 4.56699C10.0695 4.62954 10.1014 4.67315 10.1257 4.71928C10.3255 5.09907 10.5779 5.43272 10.8738 5.72847C12.4048 7.25964 14.1748 8.32319 16.1649 8.95696C17.1812 9.28056 18.2188 9.47707 19.2731 9.56178C20.2117 9.63693 21.1509 9.63252 22.0889 9.53965C22.3009 9.51879 22.5127 9.49479 22.7247 9.47453C22.8399 9.46383 22.8394 9.4657 22.8567 9.58638C22.9181 10.0104 22.9517 10.4383 22.9737 10.8667C22.9945 11.2705 22.9991 11.6743 22.9957 12.0787C22.9887 12.9856 22.8914 13.881 22.7264 14.7688C22.4722 16.1351 22.0698 17.447 21.5082 18.6994C21.0663 19.684 20.5343 20.6028 19.8504 21.4117C19.8052 21.4654 19.7612 21.4742 19.7051 21.473C19.441 21.466 19.1776 21.4635 18.9136 21.4508C18.4972 21.4312 18.0815 21.4104 17.6658 21.3807C16.9964 21.3327 16.3288 21.2676 15.6617 21.1886C14.9171 21.1008 14.1742 20.9946 13.4337 20.8739C12.4736 20.7166 11.5183 20.5288 10.5675 20.3172C9.05914 19.9816 7.56468 19.5835 6.08877 19.1089C4.11546 18.4745 2.17863 17.7295 0.318227 16.7626C0.233111 16.7183 0.182736 16.664 0.149153 16.5635C0.0107663 16.1477 0.00265997 15.7237 0.0594043 15.294C0.0935669 15.0336 0.156101 14.7808 0.235427 14.5325C0.270748 14.4219 0.327492 14.3385 0.409134 14.2665C0.674326 14.0345 0.971942 13.8614 1.27188 13.6914C1.60018 13.505 1.94297 13.3552 2.28691 13.2073C2.30833 13.1979 2.33149 13.1934 2.35118 13.1631L2.35176 13.1625ZM12.5484 7.26847L12.5449 7.26659C12.5333 7.24634 12.5182 7.23122 12.4939 7.23243H12.4951C12.4847 7.20715 12.4656 7.19706 12.4407 7.19706L12.443 7.199C12.2757 7.04415 12.0857 6.9228 11.9109 6.77871C11.7203 6.62138 11.7186 6.62328 11.5189 6.77684C11.2907 6.90134 11.0829 7.0606 10.8733 7.21732C9.88948 7.95285 8.98212 8.79141 8.12343 9.69316C7.49581 10.3523 6.89882 11.043 6.36844 11.7994C6.2758 11.9314 6.19068 12.0698 6.0992 12.2038C6.0662 12.2518 6.0714 12.2841 6.11715 12.3138C6.13683 12.3265 6.15479 12.3428 6.17331 12.358C6.85542 12.9154 7.5612 13.4336 8.28904 13.9163C8.89353 14.3176 9.51199 14.6917 10.1442 15.0393C10.2554 15.1006 10.2566 15.1 10.3185 14.9786C10.4783 14.6652 10.6509 14.3606 10.8374 14.0649C12.0631 12.1242 13.5066 10.3971 15.1273 8.84263C15.165 8.80659 15.2107 8.77945 15.2368 8.72509C15.2049 8.71118 15.1754 8.69788 15.1453 8.68591C14.5564 8.44387 13.9826 8.16393 13.4314 7.83277C13.1442 7.66027 12.8639 7.47319 12.5808 7.29314C12.575 7.27669 12.5652 7.2672 12.5484 7.26913V7.26847ZM7.24221 6.86343C7.22249 6.86343 7.21032 6.87539 7.2051 6.89565C7.18658 6.91016 7.16632 6.9228 7.14894 6.93925C6.74771 7.32155 6.36439 7.72345 6.00656 8.15443C5.98455 8.18038 5.9637 8.20752 5.94113 8.23279C5.90696 8.2707 5.88032 8.26756 5.85427 8.21956C5.82359 8.16326 5.79058 8.1083 5.7541 8.05588C5.48891 7.67103 5.16639 7.37277 4.72865 7.24888C4.23358 7.1086 3.77558 7.33292 3.54107 7.83029C3.44206 8.03943 3.38879 8.26315 3.38068 8.49823C3.35231 9.32162 3.63255 10.0079 4.17916 10.5627C4.72517 11.1163 5.3013 11.6326 5.89364 12.1255C5.92549 12.152 5.95791 12.1767 5.99092 12.2032C6.11367 12.0224 6.22601 11.8499 6.3447 11.6825C6.78475 11.0626 7.27116 10.4875 7.77897 9.93393C7.87504 9.82902 7.8693 9.85684 7.80498 9.73682C7.6637 9.47393 7.55024 9.19839 7.50678 8.89505C7.41819 8.28147 7.64866 7.83531 8.12637 7.59582C8.20166 7.55791 8.28095 7.52882 8.36025 7.50295C8.72157 7.38601 9.09104 7.39042 9.46098 7.42833C9.70074 7.453 9.93635 7.50482 10.1698 7.56927C10.2166 7.58191 10.2554 7.58953 10.2989 7.55349C10.648 7.26218 11.0168 7.00116 11.3851 6.7408C11.4719 6.68772 11.5583 6.63466 11.6619 6.57147C11.326 6.28773 11.0151 6.00146 10.721 5.69624C10.4239 5.38849 10.1831 5.03082 9.98563 4.63207C9.94852 4.65482 9.91609 4.67251 9.88601 4.69337C9.0447 5.28359 8.2381 5.92626 7.47435 6.63149C7.39392 6.70543 7.30359 6.76862 7.24101 6.8647H7.24221V6.86343ZM10.3956 18.3279C10.3452 17.974 10.2907 17.6207 10.2612 17.2637C10.2073 16.6147 10.1611 15.9663 10.2149 15.3142C10.2282 15.1543 10.238 15.1891 10.1153 15.1214C8.71521 14.3549 7.38984 13.4557 6.13278 12.437C6.10035 12.4111 6.07372 12.3739 6.02508 12.3681C6.01466 12.401 6.0025 12.4338 5.99439 12.4673C5.84385 13.0671 5.80853 13.6801 5.82938 14.298C5.83227 14.3878 5.82127 14.48 5.85485 14.5672C5.85369 14.5824 5.85022 14.5976 5.8508 14.6122C5.88206 15.1069 5.96834 15.591 6.09341 16.0674C6.11078 16.1344 6.15305 16.1648 6.19937 16.1976C7.53399 17.1354 8.91733 17.9765 10.3585 18.7019C10.3984 18.7222 10.4355 18.7557 10.4952 18.7506C10.461 18.6059 10.4286 18.4663 10.3956 18.3266V18.3279ZM3.55902 9.92196C3.57408 9.93586 3.58392 9.97692 3.60824 9.95104C3.62619 9.93205 3.59955 9.90865 3.5845 9.89227C3.55844 9.82782 3.53297 9.76336 3.50691 9.69884C3.32162 9.2357 3.24519 8.75604 3.32451 8.25239C3.36852 7.97244 3.48085 7.72599 3.6285 7.49786C3.74836 7.31273 3.87633 7.13448 4.00082 6.95375C4.00776 6.9456 4.01529 6.9367 4.02224 6.92848C4.03729 6.92848 4.04598 6.92026 4.0454 6.90321C4.26832 6.63339 4.48603 6.3585 4.72402 6.10384C4.76107 6.06402 4.77265 6.03117 4.75239 5.97302C4.70375 5.83274 4.70028 5.6855 4.73791 5.54142C4.92146 4.84187 5.34531 4.40269 5.9805 4.20995C6.15536 4.15687 6.34239 4.16634 6.49988 4.2921C6.5601 4.34012 6.59715 4.33443 6.65332 4.28831C7.14085 3.88703 7.64866 3.51862 8.17445 3.17927C8.25548 3.12682 8.30817 3.05604 8.32843 2.95809C8.37476 2.73439 8.36085 2.51953 8.25027 2.31669C7.89764 1.67023 7.58728 1.00038 7.31629 0.308419C7.3088 0.290093 7.30238 0.271135 7.29429 0.252809C7.24047 0.135271 7.27751 0.135271 7.13216 0.176346C7.12347 0.178874 7.11538 0.184561 7.10615 0.187089C6.52073 0.379827 5.96255 0.644605 5.42 0.948561C4.99674 1.18553 4.57926 1.43452 4.18611 1.72836C3.98171 1.84717 3.79584 1.99756 3.6065 2.14165C2.72813 2.81212 1.90996 3.55843 1.2024 4.44249C0.903618 4.81596 0.636691 5.21408 0.421873 5.65327C0.37034 5.75817 0.368024 5.83211 0.43519 5.93637C1.0947 6.96325 1.81211 7.93834 2.59437 8.85654C2.90588 9.2224 3.22087 9.58511 3.55844 9.92383L3.55902 9.92196ZM5.74367 14.3872C5.74367 14.1906 5.74367 13.9935 5.74484 13.7969C5.74484 13.7603 5.74136 13.7356 5.70199 13.7167C5.49875 13.6169 5.31809 13.4753 5.12991 13.3464C5.10675 13.3306 5.08301 13.3129 5.06275 13.2927C5.04479 13.2743 5.03727 13.2503 5.05522 13.2257C5.07085 13.2042 5.0888 13.2168 5.10386 13.2257C5.12818 13.2408 5.15018 13.2592 5.17392 13.2749C5.31868 13.3748 5.46285 13.4753 5.60819 13.5732C5.6464 13.5985 5.68172 13.6364 5.73209 13.627C5.75005 13.6048 5.74715 13.5789 5.74947 13.5549C5.78132 13.1783 5.82242 12.8029 5.91565 12.437C5.95212 12.2942 5.95154 12.2936 5.84153 12.2013C4.53931 11.11 3.33494 9.90297 2.23827 8.56897C1.90475 8.16326 1.5886 7.74117 1.26957 7.32222C0.966734 6.8893 0.665063 6.45455 0.377867 6.00905C0.37034 5.99704 0.357023 5.98882 0.331545 6.00526C0.294488 6.24412 0.263221 6.49247 0.230216 6.7408C0.216319 6.84444 0.231953 6.92661 0.282328 7.01065C0.479775 7.34054 0.68475 7.66468 0.907676 7.97431C1.09065 8.22838 1.27883 8.47797 1.46412 8.7301C1.49712 8.77497 1.54633 8.81542 1.51275 8.88555C1.45717 8.88749 1.44211 8.83755 1.41664 8.80472C1.01074 8.28588 0.627426 7.74812 0.284065 7.17687C0.2638 7.14337 0.252219 7.09409 0.193738 7.08266C0.180999 7.24192 0.172893 7.39236 0.155522 7.54086C0.126571 7.7968 0.127729 8.05461 0.114411 8.31182C0.09762 8.63409 0.0854601 8.9595 0.117306 9.28056C0.161313 9.72291 0.260905 10.1539 0.412608 10.5684C0.591527 11.0569 0.837031 11.4949 1.18792 11.8639C1.79763 12.5059 2.42645 13.1246 3.08017 13.7123C3.98113 14.5218 4.91857 15.2775 5.89191 15.9809C5.91623 15.9986 5.93881 16.0346 5.97992 16.0068C5.98281 15.9316 5.95271 15.8621 5.93591 15.7906C5.82938 15.3294 5.78305 14.8579 5.74252 14.3859L5.74367 14.3872ZM17.6061 21.1659C17.803 21.1956 17.9999 21.2284 18.1973 21.2549C18.6842 21.3201 19.1735 21.3586 19.6639 21.382C19.7259 21.3851 19.7457 21.3605 19.7508 21.2992C19.7624 21.1639 19.7838 21.0288 19.7914 20.8929C19.8064 20.6357 19.8134 20.3785 19.8261 20.1213C19.8296 20.0498 19.8099 20.022 19.7398 20.0265C19.6292 20.0335 19.5175 20.0297 19.4069 20.029C19.3785 20.029 19.3438 20.0258 19.3444 19.9873C19.3444 19.9532 19.3768 19.9431 19.4063 19.9425C19.5128 19.9425 19.6194 19.9462 19.7253 19.9418C19.8238 19.9374 19.8249 19.9336 19.8267 19.8299C19.8319 19.5266 19.8191 19.2239 19.8041 18.9212C19.7995 18.8284 19.7971 18.8271 19.7016 18.8378C19.3605 18.877 19.0189 18.9029 18.6762 18.8928C18.3247 18.8821 17.9738 18.8625 17.6246 18.8125C17.147 18.7443 16.6745 18.6501 16.2159 18.4852C16.1811 18.4725 16.147 18.4574 16.1146 18.4391C16.1064 18.4346 16.1007 18.4132 16.1024 18.4005C16.1047 18.3778 16.1215 18.3658 16.1418 18.3683C16.1597 18.3708 16.1771 18.3791 16.195 18.3854C16.7746 18.5882 17.3693 18.7013 17.975 18.7607C18.4694 18.8094 18.9634 18.8182 19.4578 18.7759C19.5453 18.7683 19.6327 18.7563 19.7196 18.7449C19.7572 18.7399 19.7954 18.7304 19.7896 18.6735C19.7653 18.4277 19.7468 18.1812 19.7028 17.938C19.6883 17.8571 19.6518 17.8388 19.5881 17.8514C19.4451 17.8804 19.3026 17.8584 19.1596 17.852C18.6322 17.8286 18.1082 17.7705 17.5853 17.6966C16.7637 17.5803 15.9519 17.4071 15.1487 17.1859C13.5194 16.7379 11.9531 16.1016 10.4419 15.3009C10.4014 15.2794 10.3637 15.2466 10.3035 15.2479C10.2948 15.3458 10.2821 15.445 10.278 15.5436C10.2618 15.9581 10.2809 16.3714 10.2994 16.7853C10.3046 16.9035 10.3376 16.9648 10.4384 17.0103C10.7893 17.1676 11.1413 17.3205 11.5021 17.4495C11.5414 17.4634 11.5808 17.4792 11.619 17.4962C11.6399 17.5051 11.6665 17.5152 11.6555 17.5481C11.6451 17.5784 11.6173 17.5721 11.5964 17.5671C11.5426 17.5537 11.4887 17.5398 11.436 17.5209C11.0979 17.3977 10.7661 17.2568 10.4373 17.1076C10.4048 17.0931 10.3747 17.064 10.3318 17.0786C10.3318 17.1133 10.329 17.1487 10.3318 17.1828C10.3596 17.4533 10.384 17.725 10.4286 17.993C10.4541 18.1465 10.4633 18.3032 10.5206 18.4492C10.5102 18.5175 10.542 18.5768 10.5531 18.6407C10.5762 18.7797 10.648 18.8587 10.7719 18.9181C12.2612 19.6366 13.7881 20.2375 15.367 20.6767C15.6212 20.7475 15.8743 20.8252 16.1354 20.8657L16.1887 20.8752C16.2037 20.8979 16.224 20.9004 16.2466 20.8935C16.2646 20.8966 16.2825 20.8992 16.3004 20.9023C16.3247 20.9283 16.3537 20.9327 16.385 20.9251C16.4029 20.9276 16.4209 20.9308 16.4388 20.9333C16.4544 20.9529 16.4736 20.9592 16.4967 20.951C16.5239 20.9554 16.5506 20.9598 16.5778 20.9643C16.5934 20.9845 16.6131 20.9896 16.6357 20.9813C16.6629 20.9858 16.6901 20.9902 16.7167 20.9946C16.733 21.0142 16.7515 21.0205 16.7746 21.011C16.8099 21.0167 16.8453 21.0224 16.8812 21.0281C16.8963 21.0495 16.9159 21.0521 16.9379 21.0439C16.9663 21.0483 16.9947 21.0521 17.023 21.0565C17.0375 21.0761 17.0549 21.0812 17.0763 21.0711C17.114 21.0768 17.151 21.0818 17.1886 21.0875C17.2037 21.1077 17.2217 21.1109 17.2431 21.1014C17.2796 21.1165 17.3172 21.1191 17.3554 21.1178C17.3791 21.1444 17.4081 21.1438 17.4388 21.1361C17.4672 21.1399 17.4955 21.1431 17.5245 21.1469C17.5482 21.1716 17.5754 21.174 17.605 21.1639L17.6061 21.1659ZM19.0114 17.7522C19.1267 17.7591 19.2425 17.7661 19.3577 17.773C19.5783 17.7857 19.7543 17.7269 19.9135 17.5266C20.3924 16.9256 20.8151 16.2842 21.1712 15.5903C21.9731 14.0289 22.5053 12.3675 22.709 10.5868C22.7449 10.2759 22.7502 9.96241 22.7629 9.64957C22.7658 9.58384 22.7462 9.5567 22.6842 9.56679C22.6158 9.57816 22.5464 9.58578 22.4774 9.59274C21.9569 9.64643 21.4358 9.68246 20.9124 9.6951C19.9477 9.71843 18.9883 9.65525 18.0352 9.49726C17.1516 9.3507 16.286 9.12064 15.4423 8.79837C15.3665 8.76928 15.3184 8.78005 15.257 8.83695C14.8396 9.22935 14.4348 9.63693 14.0428 10.0597C13.9259 10.1861 13.927 10.1849 14.0179 10.3346C14.2327 10.6866 14.4024 11.0575 14.4499 11.486C14.5055 11.9902 14.3057 12.4187 13.894 12.6544C13.6612 12.7877 13.41 12.8503 13.1494 12.8718C12.7446 12.9053 12.3451 12.8629 11.9514 12.7619C11.868 12.7403 11.8176 12.7542 11.7638 12.8307C11.5328 13.1593 11.3028 13.4886 11.0846 13.8273C10.9908 13.9726 10.9201 14.1312 10.8686 14.2993C10.8078 14.4978 10.7795 14.7025 10.813 14.9104C10.8733 15.2794 11.0782 15.5246 11.3851 15.6725C12.4986 16.2084 13.6422 16.6507 14.817 16.9964C15.7689 17.2769 16.7335 17.4874 17.7115 17.6233C18.1429 17.6833 18.576 17.7256 19.0103 17.7515L19.0114 17.7522ZM12.1506 3.20265C12.1482 3.19001 12.1482 3.17927 12.1442 3.17168C11.7296 2.36029 10.8154 1.97544 10.0163 2.29141C9.33595 2.55998 8.70251 2.93661 8.08352 3.34231C8.04179 3.36948 8.02675 3.39792 8.03023 3.45037C8.04353 3.65069 7.9851 3.83205 7.88086 3.9913C7.5132 4.55055 7.00887 4.84693 6.38176 4.90128C6.2758 4.91075 6.16058 4.85831 6.06735 4.90696C5.97008 4.95751 5.89364 5.05546 5.80853 5.13319C5.80158 5.13951 5.79405 5.14583 5.78711 5.15278C5.13802 5.75754 4.52657 6.40337 3.99039 7.13006C3.96723 7.16169 3.92844 7.18696 3.93249 7.23938C3.94812 7.23938 3.95797 7.24259 3.96434 7.23938C4.3326 7.05679 4.69333 7.09784 5.04885 7.28304C5.35168 7.44097 5.59371 7.67986 5.79637 7.96863C5.83227 8.01984 5.86759 8.07166 5.90522 8.12662C7.71585 6.06529 9.81828 4.46019 12.1506 3.20455V3.20265ZM22.8474 10.1855C22.8226 10.2581 22.8115 10.315 22.8075 10.3751C22.7693 10.9242 22.6807 11.4645 22.562 11.9991C22.3032 13.1676 21.9147 14.2823 21.3941 15.342C20.9662 16.2135 20.4712 17.0336 19.8313 17.7402C19.7786 17.7983 19.7694 17.8539 19.7832 17.9298C19.8052 18.053 19.8128 18.18 19.8354 18.3032C19.8562 18.4189 19.8452 18.5402 19.8794 18.6539C19.9286 18.6419 19.9488 18.6059 19.9743 18.5774C20.1972 18.3273 20.4022 18.0612 20.5811 17.7705C20.6084 17.7262 20.6304 17.6258 20.6923 17.6738C20.745 17.7149 20.6721 17.7775 20.6449 17.8236C20.4514 18.1528 20.2135 18.4416 19.9581 18.714C19.9037 18.7715 19.8805 18.8302 19.884 18.913C19.8973 19.21 19.9054 19.5077 19.9153 19.8053C19.9153 19.818 19.9199 19.8249 19.9431 19.8268C19.994 19.7895 20.0293 19.725 20.0722 19.6675C20.0983 19.6328 20.1197 19.5911 20.1602 19.574C20.1706 19.5696 20.1874 19.5753 20.1978 19.5822C20.2111 19.591 20.2117 19.6088 20.203 19.6221C20.1706 19.6707 20.1411 19.7232 20.1023 19.7662C19.9761 19.9058 19.8736 20.0549 19.9048 20.2685C19.9083 20.2919 19.8956 20.3178 19.8939 20.3431C19.8805 20.5358 20.0108 20.6509 20.1782 20.5908C20.2807 20.5542 20.3675 20.4865 20.4462 20.4063C20.5626 20.2887 20.6576 20.1522 20.7427 20.0075C21.2829 19.0906 21.7102 18.1124 22.0484 17.088C22.3501 16.1755 22.5805 15.2415 22.731 14.2848C22.8237 13.6977 22.8845 13.1069 22.9077 12.5122C22.9326 11.8715 22.921 11.23 22.8822 10.5899C22.8747 10.461 22.8602 10.3321 22.8474 10.1849V10.1855ZM11.9178 12.657C11.9294 12.6645 11.9404 12.6765 11.9531 12.6791C12.3839 12.7795 12.8176 12.8421 13.2589 12.777C13.4991 12.7416 13.7302 12.674 13.9363 12.5293C14.2785 12.2892 14.4163 11.9384 14.3729 11.5062C14.3289 11.0683 14.1383 10.6935 13.9119 10.3378C13.8784 10.2853 13.8477 10.2695 13.8048 10.3251C13.784 10.3523 13.7597 10.3757 13.7371 10.4009C13.1204 11.0841 12.5362 11.7994 11.9815 12.5432C11.9566 12.5767 11.9201 12.6045 11.9178 12.657ZM7.92425 9.78102C8.6301 9.02904 9.3649 8.33202 10.1541 7.6723C10.1066 7.65398 10.0823 7.64135 10.0568 7.635C9.66771 7.53644 9.27397 7.47827 8.87387 7.50355C8.55134 7.52441 8.24044 7.59454 7.96945 7.80121C7.73611 7.97879 7.59884 8.22143 7.57631 8.533C7.54328 8.993 7.70542 9.38921 7.92486 9.78041L7.92425 9.78102ZM4.84387 5.97619C5.36963 5.40998 5.92086 4.90064 6.50046 4.41342C6.4304 4.33317 6.35281 4.30284 6.27117 4.29146C6.16578 4.27693 6.05982 4.27819 5.95502 4.30916C5.56244 4.42607 5.26714 4.68769 5.03263 5.04093C4.9261 5.20208 4.84793 5.37902 4.81145 5.57428C4.78771 5.70193 4.78134 5.83021 4.8433 5.97555L4.84387 5.97619ZM7.94511 3.43899C7.32559 3.85922 6.74885 4.30221 6.19184 4.79258C6.26016 4.8324 6.31517 4.8305 6.37076 4.82544C6.76857 4.79132 7.12407 4.63713 7.44079 4.37488C7.60058 4.24281 7.73838 4.08798 7.83914 3.89714C7.90868 3.76507 7.95668 3.62541 7.94511 3.43899Z" fill="#070504"/>
<path d="M19.0115 17.7521C18.5773 17.7268 18.1441 17.6838 17.7128 17.6238C16.7348 17.4873 15.7702 17.2775 14.8182 16.9969C13.6434 16.6506 12.4998 16.2089 11.3864 15.673C11.0795 15.5251 10.8739 15.28 10.8143 14.9109C10.7807 14.703 10.8091 14.4983 10.8699 14.2998C10.9214 14.1318 10.9921 13.9731 11.0859 13.8278C11.3042 13.4891 11.534 13.1598 11.765 12.8313C11.8189 12.7548 11.8693 12.7409 11.9527 12.7624C12.3464 12.8635 12.746 12.9064 13.1507 12.8723C13.4112 12.8508 13.6625 12.7883 13.8953 12.6549C14.3069 12.4186 14.5073 11.9902 14.4512 11.4865C14.4037 11.0587 14.234 10.6871 14.0192 10.3351C13.9277 10.1853 13.9266 10.1866 14.0441 10.0602C14.4361 9.63747 14.8402 9.22989 15.2583 8.83748C15.3197 8.77991 15.3678 8.76982 15.4436 8.7989C16.2878 9.12117 17.1529 9.35184 18.0365 9.4978C18.9901 9.65579 19.949 9.71837 20.9136 9.69564C21.4371 9.683 21.9582 9.64696 22.4787 9.59321C22.5476 9.58632 22.6171 9.5787 22.6854 9.56733C22.7474 9.55723 22.7671 9.58438 22.7642 9.6501C22.7509 9.96294 22.7457 10.2763 22.7104 10.5873C22.506 12.368 21.9744 14.0294 21.1724 15.5909C20.8163 16.2847 20.3931 16.9261 19.9148 17.5271C19.755 17.7275 19.5796 17.7868 19.3589 17.7736C19.2437 17.7666 19.1279 17.7597 19.0127 17.7527L19.0115 17.7521ZM17.945 11.5074C17.7261 11.5042 17.5518 11.5509 17.3868 11.6344C16.6613 12.0009 16.2201 12.9285 16.3614 13.7874C16.5067 14.6695 17.2507 15.1207 17.9994 14.7788C18.7915 14.4174 19.2594 13.3191 19.004 12.4243C18.8419 11.858 18.4244 11.508 17.945 11.5074Z" fill="#E0F450"/>
<path d="M12.5805 7.29275C12.8636 7.47287 13.1439 7.65995 13.4311 7.83245C13.9823 8.16354 14.5561 8.44288 15.145 8.68552C15.1751 8.69816 15.2052 8.71146 15.2365 8.7247C15.2104 8.77906 15.1647 8.80627 15.127 8.84224C13.5069 10.3968 12.0628 12.1245 10.8371 14.0645C10.6506 14.3596 10.478 14.6649 10.3182 14.9783C10.2563 15.0996 10.2557 15.0996 10.1439 15.0389C9.51163 14.6914 8.89323 14.3173 8.28875 13.916C7.56091 13.4332 6.85513 12.9144 6.17301 12.3577C6.15448 12.3425 6.13653 12.3261 6.11684 12.3134C6.0711 12.2838 6.06589 12.2515 6.0989 12.2035C6.19038 12.0701 6.27549 11.9317 6.36814 11.7991C6.89852 11.0426 7.49492 10.3519 8.12314 9.69284C8.98182 8.79169 9.88859 7.95313 10.8729 7.21693C11.0825 7.06021 11.2904 6.90095 11.5186 6.77652C11.7947 6.90035 12.0726 7.01976 12.3373 7.17207C12.3703 7.19105 12.4039 7.20623 12.4427 7.19861L12.4404 7.19674C12.4485 7.22642 12.4687 7.23525 12.4948 7.23271L12.4936 7.23211C12.5023 7.25805 12.5208 7.26687 12.5446 7.26621L12.548 7.26815C12.5532 7.28519 12.5643 7.29275 12.5805 7.29215V7.29275Z" fill="#FA420F"/>
<path d="M16.5796 20.9663C16.5524 20.9619 16.5257 20.9575 16.4985 20.9531C16.4881 20.9139 16.4719 20.8949 16.4406 20.9353C16.4227 20.9329 16.4047 20.9297 16.3868 20.9271C16.37 20.8678 16.341 20.8633 16.3022 20.9044C16.2843 20.9012 16.2663 20.8987 16.2484 20.8956C16.2385 20.8545 16.2235 20.833 16.1905 20.8772C16.1725 20.8741 16.1546 20.8709 16.1372 20.8678C16.1048 20.7868 16.0289 20.8027 15.9716 20.7875C15.4655 20.6561 14.9652 20.5006 14.4707 20.3256C14.1072 20.1973 13.7476 20.0545 13.3909 19.9028C12.8837 19.6873 12.3828 19.456 11.8935 19.1963C11.4824 18.9783 11.0725 18.7578 10.6776 18.5056C10.6301 18.4753 10.582 18.4424 10.5224 18.45C10.4651 18.3047 10.4558 18.1473 10.4304 17.9938C10.3858 17.7252 10.3614 17.4541 10.3336 17.1836C10.3301 17.1488 10.3336 17.1141 10.3336 17.0794C10.3765 17.0648 10.4066 17.0939 10.439 17.1084C10.7679 17.2576 11.0997 17.3985 11.4378 17.5217C11.49 17.5406 11.5444 17.5545 11.5982 17.5679C11.6191 17.5729 11.6469 17.5792 11.6573 17.5489C11.6683 17.516 11.6417 17.5059 11.6208 17.497C11.582 17.4806 11.5432 17.4648 11.5038 17.4503C11.1431 17.3207 10.7911 17.1684 10.4402 17.0111C10.3394 16.9656 10.3064 16.9043 10.3012 16.7861C10.2827 16.3722 10.2642 15.9589 10.2798 15.5444C10.2838 15.4452 10.2966 15.3466 10.3053 15.2487C10.3655 15.2474 10.4031 15.2802 10.4437 15.3017C11.9543 16.1024 13.5206 16.7387 15.1505 17.1867C15.9536 17.4073 16.7654 17.5811 17.587 17.6974C18.1099 17.7713 18.6345 17.8288 19.1614 17.8528C19.3044 17.8592 19.4469 17.8812 19.5899 17.8522C19.6536 17.8389 19.6901 17.8579 19.7046 17.9388C19.7486 18.182 19.7671 18.4285 19.7914 18.6743C19.7972 18.7312 19.759 18.7407 19.7214 18.7457C19.6339 18.7578 19.5471 18.7697 19.4596 18.7767C18.9651 18.819 18.4712 18.8102 17.9768 18.7615C17.3711 18.7021 16.7764 18.5884 16.1968 18.3862C16.1794 18.3799 16.1621 18.3716 16.1435 18.3691C16.1233 18.3666 16.1065 18.3786 16.1042 18.4013C16.103 18.414 16.1082 18.4354 16.1163 18.4399C16.1487 18.4582 16.1829 18.4733 16.2177 18.486C16.6763 18.6509 17.1487 18.7451 17.6264 18.8133C17.9756 18.8633 18.3271 18.8835 18.6779 18.8936C19.0201 18.9037 19.3623 18.8785 19.7034 18.8386C19.7989 18.8279 19.8013 18.8292 19.8059 18.922C19.8209 19.2247 19.8342 19.5274 19.8285 19.8307C19.8267 19.9344 19.8255 19.9382 19.7271 19.9426C19.6211 19.947 19.5146 19.9426 19.4081 19.9433C19.3786 19.9433 19.3468 19.9534 19.3461 19.9881C19.3455 20.026 19.3803 20.0298 19.4087 20.0298C19.5199 20.0298 19.631 20.0343 19.7416 20.0273C19.8111 20.0228 19.8314 20.0506 19.8279 20.1221C19.8152 20.3793 19.8076 20.6365 19.7932 20.8937C19.785 21.0296 19.7642 21.1641 19.7526 21.3C19.7474 21.3619 19.7277 21.3859 19.6657 21.3828C19.1753 21.3594 18.686 21.3215 18.1991 21.2557C18.0017 21.2292 17.8047 21.1964 17.6079 21.1667C17.5848 21.1413 17.5558 21.1464 17.5274 21.1496C17.4991 21.1458 17.4707 21.1426 17.4418 21.1389C17.418 21.1117 17.3879 21.1161 17.3583 21.1206C17.3201 21.1218 17.2825 21.1193 17.246 21.1041C17.2304 21.0871 17.2118 21.0858 17.1916 21.0902C17.1539 21.0845 17.1169 21.0794 17.0792 21.0737C17.0642 21.0573 17.0463 21.0554 17.026 21.0592C16.9976 21.0548 16.9693 21.051 16.9408 21.0466C16.9253 21.0276 16.9055 21.0257 16.8841 21.0308C16.8488 21.0251 16.8135 21.0194 16.7776 21.0137C16.7666 20.9745 16.7498 20.9569 16.7197 20.9973C16.6925 20.9928 16.6652 20.9884 16.6386 20.984C16.6276 20.9442 16.6114 20.9265 16.5807 20.967L16.5796 20.9663ZM17.0133 20.3224C17.0613 20.3256 17.0949 20.33 17.1024 20.2921C17.1129 20.2409 17.0718 20.2377 17.0416 20.2314C16.9368 20.2106 16.832 20.1929 16.7272 20.1714C15.3387 19.8876 13.9815 19.4762 12.6491 18.9669C12.344 18.85 12.0418 18.723 11.7418 18.5916C11.7105 18.5776 11.6764 18.5619 11.6625 18.6111C11.652 18.6478 11.6816 18.6642 11.7071 18.6762C11.8096 18.7223 11.9121 18.7685 12.0157 18.8115C13.4042 19.3909 14.8281 19.8396 16.2825 20.1739C16.5315 20.2308 16.7822 20.2756 17.0126 20.3224H17.0133Z" fill="#D3E6EB"/>
<path d="M11.3853 6.74067C11.017 7.00163 10.6482 7.26259 10.299 7.5533C10.2562 7.58933 10.2168 7.58171 10.1699 7.56907C9.93657 7.50529 9.70089 7.45347 9.4612 7.4282C9.09119 7.39029 8.72179 7.38588 8.36047 7.50275C8.28111 7.52869 8.20181 7.55771 8.12653 7.59562C7.64888 7.83511 7.41781 8.28127 7.507 8.89492C7.55099 9.1982 7.66446 9.47373 7.8052 9.73662C7.86945 9.85671 7.87527 9.82889 7.77912 9.93379C7.27132 10.4873 6.78497 11.0624 6.34489 11.6823C6.22619 11.8498 6.11386 12.0223 5.99111 12.203C5.9581 12.1765 5.92568 12.1512 5.89383 12.1253C5.30091 11.6324 4.72478 11.1168 4.17934 10.5626C3.63274 10.0077 3.3525 9.32142 3.38087 8.49803C3.38898 8.26295 3.44224 8.03991 3.54126 7.8301C3.77634 7.33339 4.23377 7.10907 4.72883 7.24875C5.16658 7.37257 5.48909 7.67084 5.75429 8.05568C5.79018 8.10817 5.82377 8.16313 5.85446 8.21936C5.88051 8.26736 5.90715 8.27118 5.94131 8.2326C5.96389 8.20732 5.98532 8.18018 6.00674 8.15424C6.36457 7.72332 6.74787 7.32075 7.14916 6.93905C7.16655 6.92267 7.1868 6.91003 7.20532 6.89546C7.22498 6.89485 7.23775 6.88476 7.24237 6.86323H7.24123C7.28636 6.87526 7.31879 6.84872 7.35589 6.82472C7.88683 6.48029 8.46872 6.328 9.07902 6.29261C9.37374 6.27555 9.66673 6.30462 9.96031 6.34506C10.3407 6.39751 10.7108 6.4923 11.0772 6.61047C11.1821 6.64396 11.2932 6.66545 11.3853 6.7394V6.74067Z" fill="#E0F450"/>
<path d="M4.02193 6.92814C4.01498 6.93637 4.00745 6.94519 4.0005 6.95342C3.97619 6.82264 3.90612 6.71325 3.85285 6.59638C3.5396 5.90821 3.4018 5.17517 3.38326 4.4118C3.37747 4.17546 3.41279 3.94164 3.43422 3.70657C3.45854 3.43926 3.51586 3.1808 3.59345 2.92867C3.71563 2.53054 3.88296 2.15518 4.14005 1.83542C4.16437 1.8051 4.18232 1.76907 4.18637 1.72736C4.57953 1.43352 4.997 1.18454 5.42027 0.947563C5.96339 0.643608 6.52157 0.37883 7.10637 0.186092C7.11507 0.182932 7.12316 0.177876 7.13245 0.175349C7.2778 0.134273 7.2407 0.134273 7.29459 0.251812C7.30268 0.269506 7.30903 0.289096 7.31658 0.307422C7.5881 0.998751 7.89793 1.66923 8.25056 2.31569C8.36114 2.51854 8.37445 2.7334 8.32872 2.9571C8.30846 3.05504 8.25577 3.12646 8.17467 3.17828C7.64895 3.51762 7.14114 3.88603 6.65359 4.28731C6.59742 4.33344 6.56036 4.33913 6.50015 4.2911C6.34265 4.16598 6.15563 4.15587 5.98076 4.20895C5.34558 4.40169 4.92173 4.84151 4.73818 5.54042C4.70054 5.68387 4.70344 5.83174 4.75265 5.97203C4.77292 6.0308 4.76134 6.06366 4.72428 6.10284C4.48631 6.35751 4.26859 6.63239 4.04567 6.9022C4.03177 6.90414 4.02424 6.91237 4.02251 6.92748L4.02193 6.92814Z" fill="#E0F450"/>
<path d="M5.7443 14.3874C5.78483 14.8595 5.83116 15.3308 5.93769 15.7922C5.95391 15.8636 5.9846 15.9331 5.9817 16.0083C5.94001 16.0355 5.91743 15.9994 5.89369 15.9824C4.92093 15.279 3.98291 14.5239 3.08196 13.7137C2.42766 13.126 1.79942 12.5068 1.1897 11.8654C0.839396 11.4963 0.593311 11.0584 0.414393 10.5699C0.262689 10.1554 0.163097 9.72437 0.119091 9.28202C0.0872452 8.96103 0.0994044 8.63555 0.116196 8.31328C0.129514 8.05674 0.127777 7.79892 0.157307 7.54231C0.174098 7.39322 0.182205 7.24345 0.195522 7.08419C0.254004 7.09555 0.265584 7.14483 0.28585 7.17833C0.629211 7.74898 1.01194 8.28741 1.41842 8.80618C1.44389 8.8384 1.45895 8.88895 1.51454 8.88708C1.54754 8.81694 1.4989 8.77589 1.4659 8.73163C1.28061 8.4795 1.09243 8.22984 0.909459 7.97584C0.685958 7.66621 0.48156 7.342 0.284113 7.01218C0.233738 6.92747 0.218104 6.84596 0.232001 6.74233C0.265005 6.49396 0.296272 6.24562 0.33333 6.00674C0.358807 5.98969 0.372124 5.99853 0.379651 6.01054C0.667426 6.45605 0.968517 6.89083 1.27135 7.32368C1.23139 7.35531 1.26034 7.38626 1.27309 7.41595C1.35762 7.61185 1.441 7.80835 1.52786 8.00298C1.72414 8.44219 1.93896 8.87063 2.15957 9.29593C2.33212 9.62896 2.51335 9.95564 2.69922 10.2792C2.88277 10.5984 3.07732 10.9111 3.27593 11.2202C3.53244 11.6189 3.79589 12.0119 4.07903 12.3892C4.21915 12.5756 4.35291 12.7677 4.49824 12.9485C4.66211 13.1526 4.82423 13.3586 4.99273 13.5583C5.20871 13.813 5.416 14.0765 5.64182 14.321C5.67077 14.3527 5.6974 14.3906 5.74488 14.3886L5.7443 14.3874ZM4.20874 13.3814C4.21394 13.3491 4.19657 13.3314 4.1792 13.3156C4.12882 13.2714 4.07788 13.2278 4.02692 13.1842C3.20876 12.4815 2.40392 11.7623 1.66161 10.9636C1.64192 10.9421 1.62224 10.9206 1.59965 10.9029C1.57939 10.8871 1.55449 10.8871 1.5377 10.9105C1.52496 10.9282 1.53075 10.9497 1.54349 10.9655C1.57128 10.9996 1.59908 11.0331 1.6286 11.0647C2.39813 11.8837 3.22845 12.6243 4.07382 13.3459C4.0993 13.3675 4.12651 13.3877 4.15546 13.4034C4.1792 13.4161 4.20004 13.4066 4.20931 13.3801L4.20874 13.3814Z" fill="#A3B0B3"/>
<path d="M12.1504 3.20258C9.81807 4.45821 7.71564 6.06331 5.90505 8.12468C5.86742 8.06972 5.83209 8.0179 5.7962 7.96668C5.59354 7.67791 5.35209 7.43902 5.04868 7.28103C4.69373 7.09589 4.33243 7.05484 3.96417 7.23744C3.95722 7.24058 3.94795 7.23744 3.93232 7.23744C3.92769 7.18562 3.96706 7.15968 3.99022 7.12812C4.5264 6.40139 5.13785 5.75557 5.78693 5.15081C5.79388 5.14449 5.80141 5.13817 5.80836 5.13122C5.89405 5.05412 5.97048 4.95554 6.06718 4.90499C6.16098 4.85633 6.27563 4.90878 6.38159 4.8993C7.00812 4.84496 7.51299 4.54921 7.88065 3.98932C7.98489 3.83071 8.04339 3.64872 8.03009 3.44839C8.02661 3.39594 8.04165 3.36751 8.08331 3.34033C8.7023 2.93464 9.33574 2.55801 10.0161 2.28944C10.8152 1.97347 11.7295 2.35895 12.144 3.16971C12.1481 3.17793 12.1481 3.18804 12.1504 3.20068V3.20258Z" fill="#E0F450"/>
<path d="M4.18645 1.72698C4.1824 1.76869 4.16446 1.80471 4.14013 1.83504C3.88305 2.1548 3.71571 2.52953 3.59354 2.92828C3.51595 3.18042 3.45862 3.43888 3.43431 3.70618C3.41288 3.94126 3.37756 4.17507 3.38335 4.41141C3.40188 5.17478 3.53969 5.90782 3.85294 6.59599C3.90621 6.71292 3.97627 6.82223 4.00059 6.95301C3.8761 7.1344 3.74756 7.31259 3.62828 7.49712C3.48063 7.72525 3.36772 7.9717 3.32429 8.25164C3.24555 8.7553 3.32197 9.23496 3.50668 9.6981C3.53216 9.76256 3.55822 9.82708 3.58428 9.89153C3.57559 9.90162 3.56748 9.91172 3.55879 9.92182C3.22122 9.5831 2.90682 9.22038 2.59472 8.85452C1.81246 7.93633 1.09447 6.96124 0.435545 5.93436C0.368377 5.8301 0.370694 5.75679 0.422227 5.65126C0.637045 5.21207 0.903973 4.81395 1.20275 4.44048C1.90973 3.55705 2.7279 2.81011 3.60685 2.13963C3.7962 1.99555 3.98206 1.84515 4.18645 1.72635V1.72698Z" fill="#A9BB24"/>
<path d="M5.85419 14.5679C5.82061 14.4813 5.83219 14.3884 5.82871 14.2987C5.80787 13.6806 5.84319 13.0677 5.99374 12.468C6.00242 12.4345 6.014 12.4016 6.02443 12.3688C6.07306 12.3745 6.0997 12.4118 6.13212 12.4376C7.38977 13.4563 8.71454 14.3549 10.1147 15.1221C10.2374 15.1891 10.2275 15.1549 10.2142 15.3148C10.1604 15.9669 10.2067 16.6153 10.2606 17.2643C10.2901 17.6213 10.3445 17.9746 10.3949 18.3285C10.1042 18.1522 9.82108 17.9626 9.54201 17.7661C8.7354 17.1973 7.95782 16.5863 7.22589 15.9057C6.86398 15.5688 6.50386 15.2314 6.16513 14.8667C6.0667 14.7612 5.95784 14.6677 5.85361 14.5685L5.85419 14.5679Z" fill="#FA4616"/>
<path d="M22.8471 10.1852C22.8598 10.3325 22.8737 10.4614 22.8818 10.5903C22.9201 11.2305 22.9322 11.8719 22.9073 12.5127C22.8841 13.1073 22.8228 13.6976 22.7307 14.2852C22.5801 15.2426 22.3497 16.1759 22.0481 17.0885C21.7093 18.1128 21.2826 19.0911 20.7423 20.008C20.6572 20.1527 20.5623 20.2892 20.4459 20.4067C20.3665 20.4864 20.2797 20.554 20.1778 20.5913C20.0104 20.6519 19.8802 20.5362 19.8935 20.3436C19.8952 20.3183 19.908 20.2929 19.9045 20.2689C19.8732 20.0554 19.9757 19.9069 20.102 19.7665C20.1407 19.7236 20.1703 19.6711 20.2027 19.6225C20.2114 19.6098 20.2108 19.5915 20.1975 19.5827C20.1871 19.5757 20.1703 19.57 20.1599 19.5745C20.1193 19.5915 20.0979 19.6332 20.0718 19.668C20.029 19.7249 19.9936 19.7899 19.9427 19.8273C19.9196 19.8253 19.9155 19.8184 19.9149 19.8057C19.905 19.5081 19.897 19.2105 19.8837 18.9135C19.8802 18.8307 19.9033 18.7719 19.9577 18.7144C20.2131 18.4427 20.4511 18.1533 20.6445 17.824C20.6717 17.7779 20.7447 17.7153 20.6919 17.6743C20.63 17.6262 20.608 17.7267 20.5808 17.771C20.4019 18.061 20.1969 18.327 19.974 18.5779C19.9485 18.6064 19.9282 18.6424 19.879 18.6544C19.8449 18.5407 19.8558 18.4193 19.835 18.3036C19.8124 18.1804 19.8055 18.0541 19.7829 17.9302C19.769 17.8537 19.7783 17.7988 19.831 17.7406C20.4708 17.0341 20.9659 16.2138 21.3938 15.3425C21.9143 14.2827 22.3022 13.168 22.5616 11.9996C22.6804 11.465 22.7689 10.9247 22.8071 10.3755C22.8112 10.3154 22.8222 10.2579 22.8471 10.1859V10.1852Z" fill="#A3B0B3"/>
<path d="M5.74293 14.3873C5.69487 14.3892 5.66881 14.3513 5.63986 14.3197C5.41404 14.0751 5.20617 13.8122 4.99077 13.557C4.8217 13.3572 4.66016 13.1513 4.49629 12.9471C4.35095 12.7664 4.21662 12.5743 4.07708 12.3879C3.79393 12.0106 3.53048 11.6175 3.27397 11.2189C3.07537 10.9104 2.88081 10.5977 2.69727 10.2779C2.5114 9.95432 2.33016 9.62697 2.15761 9.29461C1.93701 8.86931 1.72219 8.44087 1.5259 8.00166C1.43905 7.80703 1.35566 7.61053 1.27113 7.41462C1.25839 7.38494 1.22944 7.35392 1.26939 7.32236C1.58843 7.7413 1.90458 8.16346 2.2381 8.56917C3.33477 9.90317 4.53914 11.1107 5.84136 12.2015C5.95138 12.2937 5.95138 12.2944 5.91547 12.4372C5.82225 12.803 5.78114 13.1784 5.7493 13.5551C5.74698 13.5797 5.74987 13.6056 5.73193 13.6271C5.68155 13.6366 5.64623 13.5987 5.60802 13.5734C5.4621 13.4755 5.3185 13.375 5.17374 13.2751C5.15058 13.2587 5.128 13.2404 5.10369 13.2258C5.08863 13.2164 5.07068 13.2037 5.05505 13.2258C5.03709 13.2505 5.04462 13.2751 5.06257 13.2928C5.08284 13.3131 5.106 13.3307 5.12974 13.3466C5.31735 13.4755 5.49858 13.617 5.70181 13.7168C5.74119 13.7364 5.74467 13.7611 5.74467 13.7971C5.74408 13.9936 5.74408 14.1908 5.74351 14.3873H5.74293Z" fill="#D3E6EB"/>
<path d="M5.85387 14.5681C5.95809 14.6673 6.06694 14.7608 6.16538 14.8664C6.5041 15.231 6.86423 15.5685 7.22614 15.9053C7.95807 16.5859 8.73565 17.1969 9.54226 17.7657C9.82133 17.9622 10.1045 18.1518 10.3951 18.3281C10.4282 18.4677 10.4606 18.6074 10.4948 18.7521C10.4351 18.7572 10.3981 18.7237 10.3581 18.7035C8.91631 17.9774 7.53303 17.1369 6.19896 16.1991C6.15264 16.1663 6.11037 16.1359 6.093 16.069C5.96735 15.5925 5.88108 15.1084 5.85039 14.6136C5.84923 14.5991 5.85271 14.5839 5.85444 14.5688L5.85387 14.5681Z" fill="#8A0000"/>
<path d="M11.9182 12.657C11.9205 12.6046 11.9569 12.5768 11.9819 12.5433C12.5359 11.7989 13.1208 11.0842 13.7374 10.4011C13.76 10.3758 13.7849 10.3524 13.8052 10.3253C13.848 10.2696 13.8793 10.2854 13.9123 10.3379C14.1387 10.693 14.3292 11.0677 14.3732 11.5063C14.4167 11.9385 14.2783 12.2893 13.9366 12.5294C13.7305 12.6741 13.4989 12.7417 13.2592 12.7771C12.818 12.8422 12.3842 12.7796 11.9535 12.6791C11.9408 12.676 11.9303 12.6646 11.9182 12.657Z" fill="#D3E6EB"/>
<path d="M11.3854 6.74081C11.2933 6.66749 11.1821 6.64601 11.0773 6.61188C10.7113 6.49371 10.3408 6.39892 9.96035 6.34647C9.66677 6.30603 9.37379 6.27696 9.07907 6.29402C8.46876 6.32941 7.88688 6.4817 7.35587 6.82612C7.31943 6.85013 7.287 6.87667 7.24127 6.86463C7.30318 6.76862 7.39411 6.70544 7.47461 6.63147C8.2389 5.92624 9.0449 5.2842 9.88621 4.69335C9.91636 4.67186 9.94879 4.6548 9.98583 4.63205C10.1833 5.0308 10.4242 5.38847 10.7212 5.69621C11.0153 6.00144 11.3262 6.2877 11.6621 6.57144C11.5585 6.63463 11.4716 6.68772 11.3854 6.74081Z" fill="#A9BB24"/>
<path d="M7.92427 9.7809C7.70537 9.38909 7.5427 8.99355 7.57566 8.53348C7.59826 8.22191 7.73553 7.97927 7.96887 7.80169C8.24039 7.59569 8.55136 7.52489 8.87329 7.5041C9.27339 7.47876 9.66713 7.53692 10.0563 7.63548C10.0817 7.64183 10.106 7.65447 10.1535 7.67279C9.36431 8.3325 8.62952 9.02952 7.92367 9.78156L7.92427 9.7809Z" fill="#D3E6EB"/>
<path d="M4.8431 5.97614C4.78115 5.83079 4.78752 5.70252 4.81126 5.57487C4.84774 5.3796 4.92532 5.20266 5.03244 5.04152C5.26637 4.68827 5.56225 4.42602 5.95483 4.30975C6.05963 4.27878 6.16559 4.27752 6.27097 4.29205C6.35262 4.30343 6.4302 4.33313 6.50027 4.41401C5.92067 4.90123 5.36944 5.40993 4.84368 5.97677L4.8431 5.97614Z" fill="#D3E6EB"/>
<path d="M10.5217 18.4505C10.5814 18.4429 10.6294 18.4758 10.6769 18.5061C11.0718 18.7583 11.4818 18.9788 11.8929 19.1968C12.3821 19.4565 12.883 19.6879 13.3902 19.9034C13.7469 20.0544 14.1064 20.1972 14.4701 20.3261C14.9651 20.5012 15.4648 20.6566 15.9709 20.7881C16.0283 20.8026 16.1035 20.7874 16.1365 20.8683C15.876 20.8278 15.6229 20.7495 15.3682 20.6793C13.7892 20.2401 12.2623 19.6392 10.773 18.9207C10.6492 18.8613 10.5773 18.7823 10.5541 18.6432C10.5432 18.5795 10.5113 18.5194 10.5217 18.4518V18.4505Z" fill="#A3B0B3"/>
<path d="M7.94475 3.43893C7.95632 3.62535 7.90885 3.76438 7.83878 3.89708C7.73802 4.08792 7.60022 4.24274 7.44042 4.37482C7.1237 4.63707 6.76821 4.79126 6.37039 4.82539C6.3148 4.83044 6.25979 4.83233 6.19147 4.79252C6.74848 4.30215 7.32522 3.85917 7.94475 3.43893Z" fill="#D3E6EB"/>
<path d="M12.4434 7.1984C12.4046 7.20595 12.3711 7.19084 12.3381 7.17185C12.0734 7.01955 11.7955 6.90013 11.5193 6.77624C11.7191 6.62334 11.7203 6.62081 11.9114 6.77818C12.0862 6.92226 12.2761 7.04355 12.4434 7.1984Z" fill="#8A0000"/>
<path d="M16.3015 20.9043C16.3408 20.8633 16.3698 20.8677 16.386 20.9271C16.3542 20.9347 16.3253 20.9303 16.3015 20.9043Z" fill="#A3B0B3"/>
<path d="M16.1901 20.877C16.2231 20.8328 16.2381 20.8543 16.248 20.8954C16.2254 20.9017 16.2052 20.8998 16.1901 20.877Z" fill="#A3B0B3"/>
<path d="M16.4409 20.9353C16.4721 20.8948 16.4877 20.9137 16.4988 20.9529C16.4756 20.9612 16.4565 20.9549 16.4409 20.9353Z" fill="#A3B0B3"/>
<path d="M16.5802 20.9661C16.6109 20.9249 16.6271 20.9433 16.6381 20.9831C16.6156 20.9913 16.5958 20.9862 16.5802 20.9661Z" fill="#A3B0B3"/>
<path d="M16.7185 20.9964C16.7487 20.9559 16.7648 20.9737 16.7764 21.0128C16.7539 21.0223 16.7348 21.0154 16.7185 20.9964Z" fill="#A3B0B3"/>
<path d="M17.3571 21.1195C17.3866 21.1157 17.4168 21.1106 17.4405 21.1379C17.4103 21.1454 17.3814 21.1454 17.3571 21.1195Z" fill="#A3B0B3"/>
<path d="M17.5247 21.1486C17.5531 21.1454 17.582 21.141 17.6052 21.1656C17.5757 21.1751 17.5479 21.1726 17.5247 21.1486Z" fill="#A3B0B3"/>
<path d="M12.495 7.23324C12.4689 7.23578 12.4486 7.22695 12.4406 7.19727C12.4654 7.19727 12.4845 7.20736 12.495 7.23324Z" fill="#8A0000"/>
<path d="M12.5453 7.26681C12.5215 7.26681 12.503 7.25858 12.4943 7.23271C12.5181 7.23144 12.5331 7.24662 12.5453 7.26681Z" fill="#8A0000"/>
<path d="M3.58419 9.89187C3.59925 9.90892 3.62588 9.93232 3.60793 9.95064C3.58361 9.97652 3.57377 9.93547 3.55872 9.92156C3.5674 9.91146 3.5755 9.90137 3.58419 9.8912V9.89187Z" fill="#A9BB24"/>
<path d="M16.8838 21.0297C16.9052 21.0246 16.9249 21.0265 16.9406 21.0455C16.9186 21.053 16.8988 21.0506 16.8838 21.0297Z" fill="#A3B0B3"/>
<path d="M17.0245 21.058C17.0441 21.0542 17.0627 21.0561 17.0778 21.0725C17.0569 21.082 17.0389 21.0776 17.0245 21.058Z" fill="#A3B0B3"/>
<path d="M17.1895 21.0897C17.2098 21.0852 17.2283 21.0865 17.2439 21.1035C17.2225 21.113 17.2046 21.1093 17.1895 21.0897Z" fill="#A3B0B3"/>
<path d="M4.02252 6.92775C4.02367 6.91271 4.03171 6.90388 4.0455 6.90268C4.04607 6.9202 4.03803 6.92775 4.02252 6.92775Z" fill="#A9BB24"/>
<path d="M12.5804 7.29253C12.5643 7.29253 12.5534 7.28565 12.5482 7.26873C12.5649 7.26686 12.5746 7.27622 12.5804 7.29253Z" fill="#8A0000"/>
<path d="M7.24267 6.86356C7.23805 6.88508 7.22528 6.89518 7.20563 6.89578C7.21144 6.87559 7.22301 6.86422 7.24267 6.86356Z" fill="#A9BB24"/>
<path d="M17.9444 11.5074C18.4238 11.5074 18.8413 11.8574 19.0034 12.4243C19.2594 13.3197 18.7909 14.4174 17.9988 14.7788C17.2507 15.1208 16.5061 14.6695 16.3608 13.7874C16.2195 12.9285 16.6602 12.0009 17.3862 11.6344C17.5513 11.5509 17.7255 11.5042 17.9444 11.5074ZM18.993 13.0094C18.989 12.7883 18.9739 12.6322 18.9305 12.4824C18.8106 12.066 18.5796 11.7608 18.1806 11.6439C17.8419 11.5447 17.5281 11.6369 17.2392 11.8334C16.6567 12.229 16.3266 13.0278 16.4453 13.7672C16.5102 14.1697 16.6896 14.4983 17.0353 14.6878C17.3711 14.8718 17.7128 14.8446 18.0365 14.6588C18.6647 14.2986 18.9455 13.6989 18.9924 13.0101L18.993 13.0094Z" fill="#18110C"/>
<path d="M17.0137 20.3225C16.7832 20.2757 16.5325 20.2315 16.2836 20.174C14.829 19.8397 13.4052 19.3917 12.0167 18.8115C11.9131 18.7686 11.8106 18.7218 11.7081 18.6763C11.682 18.665 11.6531 18.6478 11.6635 18.6112C11.6774 18.5619 11.7116 18.5777 11.7429 18.5916C12.0433 18.7231 12.345 18.8501 12.6502 18.967C13.9825 19.477 15.3398 19.8877 16.7282 20.1715C16.8325 20.1929 16.9379 20.21 17.0426 20.2315C17.0733 20.2378 17.1138 20.2409 17.1035 20.2921C17.0959 20.3301 17.0623 20.3256 17.0143 20.3225H17.0137Z" fill="#18110C"/>
<path d="M4.20836 13.381C4.1991 13.4075 4.17825 13.417 4.15451 13.4043C4.12556 13.3885 4.09834 13.3689 4.07287 13.3468C3.22749 12.6252 2.39717 11.8839 1.62766 11.0655C1.59812 11.034 1.57033 10.9999 1.54254 10.9664C1.5298 10.9505 1.52343 10.9291 1.53675 10.9114C1.55354 10.8886 1.57844 10.8886 1.59871 10.9038C1.62128 10.9208 1.64098 10.943 1.66066 10.9644C2.40296 11.7632 3.20781 12.4824 4.02597 13.1851C4.07692 13.2287 4.12788 13.2716 4.17825 13.3165C4.1962 13.3323 4.21357 13.35 4.20778 13.3823L4.20836 13.381Z" fill="#18110C"/>
<path d="M18.9935 13.0094C18.9467 13.6976 18.6658 14.298 18.0376 14.6581C17.7133 14.844 17.3723 14.8711 17.0364 14.6872C16.6902 14.4977 16.5107 14.1691 16.4464 13.7665C16.3277 13.0272 16.6572 12.2284 17.2402 11.8328C17.5292 11.6363 17.8431 11.5447 18.1818 11.6432C18.5807 11.7601 18.8117 12.0654 18.9316 12.4818C18.975 12.6316 18.99 12.7883 18.9941 13.0088L18.9935 13.0094Z" fill="#D3E6EB"/>
</g>
<defs>
<clipPath id="clip0_922_42001">
<rect width="23" height="21.5291" fill="white"/>
</clipPath>
</defs>
</svg>
