<svg width="22" height="22" viewBox="0 0 22 22" fill="none" xmlns="http://www.w3.org/2000/svg">
<path d="M11 0C17.0751 0 22 4.92487 22 11C22 17.0751 17.0751 22 11 22C4.92487 22 0 17.0751 0 11C0 4.92487 4.92487 0 11 0ZM11 4C10.5858 4 10.25 4.33579 10.25 4.75V6H8.875C7.28718 6 6 7.28718 6 8.875C6 10.4628 7.28718 11.75 8.875 11.75H10.25V14.5H7.25C6.83579 14.5 6.5 14.8358 6.5 15.25C6.5 15.6642 6.83579 16 7.25 16H10.25V17.25C10.25 17.6642 10.5858 18 11 18C11.4142 18 11.75 17.6642 11.75 17.25V16H13.125C14.7128 16 16 14.7128 16 13.125C16 11.5372 14.7128 10.25 13.125 10.25H11.75V7.5H14.75C15.1642 7.5 15.5 7.16421 15.5 6.75C15.5 6.33579 15.1642 6 14.75 6H11.75V4.75C11.75 4.33579 11.4142 4 11 4ZM13.125 11.75C13.8844 11.75 14.5 12.3656 14.5 13.125C14.5 13.8844 13.8844 14.5 13.125 14.5H11.75V11.75H13.125ZM10.25 10.25H8.875C8.11561 10.25 7.5 9.63439 7.5 8.875C7.5 8.11561 8.11561 7.5 8.875 7.5H10.25V10.25Z" fill="#FA4616"/>
</svg>
