<svg width="14" height="17" viewBox="0 0 14 17" fill="none" xmlns="http://www.w3.org/2000/svg">
<path d="M6.6792 8.75C9.8357 8.75003 12.2501 10.6398 13.231 13.292C13.5032 14.0283 13.3168 14.7538 12.8833 15.2705C12.4601 15.7746 11.8048 16.083 11.0981 16.083H2.26025C1.5536 16.0829 0.898275 15.7747 0.475098 15.2705C0.0416115 14.7539 -0.144717 14.0283 0.127441 13.292C1.10834 10.6399 3.52288 8.7501 6.6792 8.75ZM6.6792 10.25C4.18397 10.2501 2.30961 11.7172 1.53467 13.8125C1.46656 13.997 1.5042 14.1633 1.62451 14.3066C1.75529 14.4621 1.98546 14.5829 2.26025 14.583H11.0981C11.3729 14.583 11.6031 14.4621 11.7339 14.3066C11.8542 14.1632 11.8919 13.9971 11.8237 13.8125C11.0488 11.7171 9.1746 10.25 6.6792 10.25ZM6.6792 0C8.81933 9.05983e-06 10.5542 1.7349 10.5542 3.875C10.554 6.01494 8.81921 7.74999 6.6792 7.75C4.53934 7.74986 2.80438 6.01486 2.8042 3.875C2.8042 1.73498 4.53923 0.000140583 6.6792 0ZM6.6792 1.5C5.36766 1.50014 4.3042 2.56341 4.3042 3.875C4.30438 5.18644 5.36777 6.24986 6.6792 6.25C7.99078 6.24999 9.05402 5.18652 9.0542 3.875C9.0542 2.56332 7.99089 1.50001 6.6792 1.5Z" fill="#B4B4B4"/>
</svg>
