<svg width="18" height="18" viewBox="0 0 18 18" fill="none" xmlns="http://www.w3.org/2000/svg">
<path d="M9 0C13.9706 0 18 4.02944 18 9C18 13.9706 13.9706 18 9 18C4.02944 18 0 13.9706 0 9C0 4.02944 4.02944 0 9 0ZM9 1.5C4.85786 1.5 1.5 4.85786 1.5 9C1.5 13.1421 4.85786 16.5 9 16.5C13.1421 16.5 16.5 13.1421 16.5 9C16.5 4.85786 13.1421 1.5 9 1.5ZM9 13C9.55229 13 10 13.4477 10 14C10 14.5523 9.55229 15 9 15C8.44771 15 8 14.5523 8 14C8 13.4477 8.44771 13 9 13ZM9 4C10.6569 4 12 5.34315 12 7C12 7.95689 11.5511 8.80933 10.8555 9.35742C10.5318 9.61245 10.2424 9.85693 10.0332 10.1143C9.82751 10.3674 9.75 10.5716 9.75 10.75V11.25C9.75 11.6642 9.41421 12 9 12C8.58579 12 8.25 11.6642 8.25 11.25V10.75C8.25 10.1001 8.54306 9.57023 8.87012 9.16797C9.19373 8.76995 9.59981 8.43729 9.92676 8.17969C10.277 7.90378 10.5 7.47788 10.5 7C10.5 6.17157 9.82843 5.5 9 5.5C8.17157 5.5 7.5 6.17157 7.5 7V7.25C7.5 7.66421 7.16421 8 6.75 8C6.33579 8 6 7.66421 6 7.25V7C6 5.34315 7.34315 4 9 4Z" fill="#6E6E6E"/>
</svg>
