<svg width="14" height="14" viewBox="0 0 14 14" fill="none" xmlns="http://www.w3.org/2000/svg">
<path d="M6.3834 0.312764C6.01426 0.402999 5.66152 0.509639 5.32793 0.632686C3.52324 1.30261 2.25996 2.45105 1.42051 3.81823C0.922853 4.63308 0.575587 5.52175 0.351369 6.42683L6.84824 12.9237C7.21738 12.8335 7.57012 12.7268 7.90371 12.6038C9.7084 11.9339 10.9717 10.7854 11.8111 9.41823C12.3115 8.60339 12.6561 7.71472 12.8803 6.81237L6.3834 0.312764ZM13.1564 5.2319C13.3232 3.67878 13.1947 2.16394 12.9459 0.955342C12.8721 0.602608 12.5904 0.32917 12.2322 0.269014C10.6408 0.00377981 9.22715 -0.0591108 7.97754 0.0529986L13.1564 5.2319ZM5.25137 13.1807L0.0751968 8.00456C-0.0916001 9.55769 0.0369155 11.0725 0.285744 12.2811C0.359572 12.6339 0.641212 12.9073 0.999416 12.9675C2.59082 13.2327 4.00449 13.2956 5.2541 13.1835L5.25137 13.1807ZM6.74434 4.12175C6.91387 3.95222 7.19277 3.95222 7.36231 4.12175L9.11231 5.87175C9.28184 6.04128 9.28184 6.32019 9.11231 6.48972C8.94277 6.65925 8.66387 6.65925 8.49434 6.48972L6.74434 4.73972C6.57481 4.57019 6.57481 4.29128 6.74434 4.12175ZM5.43184 5.43425C5.60137 5.26472 5.88028 5.26472 6.04981 5.43425L7.79981 7.18425C7.96934 7.35378 7.96934 7.63269 7.79981 7.80222C7.63027 7.97175 7.35137 7.97175 7.18184 7.80222L5.43184 6.05222C5.26231 5.88269 5.26231 5.60378 5.43184 5.43425ZM4.11934 6.74675C4.28887 6.57722 4.56778 6.57722 4.73731 6.74675L6.48731 8.49675C6.65684 8.66628 6.65684 8.94519 6.48731 9.11472C6.31778 9.28425 6.03887 9.28425 5.86934 9.11472L4.11934 7.36472C3.94981 7.19519 3.94981 6.91628 4.11934 6.74675Z" fill="#7B7B7B"/>
</svg>
