<svg width="16" height="16" viewBox="0 0 16 16" fill="none" xmlns="http://www.w3.org/2000/svg">
<path d="M2.82486 7.31048C6.04668 5.91162 8.19456 4.98933 9.26845 4.54376C12.3384 3.27142 12.9755 3.05044 13.3915 3.04304C13.4831 3.04149 13.6868 3.06404 13.8197 3.17125C13.9302 3.26161 13.9613 3.3838 13.9769 3.46951C13.9907 3.55521 14.0097 3.75055 13.9942 3.90303C13.8285 5.64469 13.1085 9.87113 12.7424 11.8219C12.5887 12.6474 12.2831 12.9241 11.9879 12.9511C11.3455 13.01 10.8587 12.5284 10.2371 12.1224C9.26501 11.4868 8.71598 11.0913 7.77153 10.4713C6.68033 9.75462 7.38821 9.36071 8.00981 8.71704C8.17207 8.54857 11.0002 5.98511 11.0537 5.7526C11.0607 5.72351 11.0676 5.61509 11.002 5.55795C10.9381 5.50064 10.8431 5.52026 10.774 5.53575C10.6756 5.55778 9.12341 6.58143 6.11222 8.60653C5.67194 8.90841 5.2731 9.05554 4.91397 9.04782C4.52031 9.03937 3.76066 8.82546 3.19606 8.64269C2.50542 8.41845 1.95461 8.29986 2.00296 7.91899C2.02713 7.72073 2.3017 7.51782 2.82486 7.31048Z" fill="#EEEEEE"/>
</svg>
