<svg width="18" height="18" viewBox="0 0 18 18" fill="none" xmlns="http://www.w3.org/2000/svg">
<path d="M14.6797 0C16.5133 0 18 1.48673 18 3.32031V14.6797C18 16.5133 16.5133 18 14.6797 18H3.32031C1.48673 18 0 16.5133 0 14.6797V3.32031C0 1.48673 1.48673 0 3.32031 0H14.6797ZM3.32031 1.5C2.31515 1.5 1.5 2.31515 1.5 3.32031V14.6797C1.5 15.6848 2.31515 16.5 3.32031 16.5H14.6797C15.6848 16.5 16.5 15.6848 16.5 14.6797V3.32031C16.5 2.31515 15.6848 1.5 14.6797 1.5H3.32031ZM9 7C9.41421 7 9.75 7.33579 9.75 7.75V12.5H11.25C11.6642 12.5001 12 12.8358 12 13.25C11.9999 13.6641 11.6641 13.9999 11.25 14H6.75C6.33583 14 6.00007 13.6642 6 13.25C6 12.8358 6.33579 12.5 6.75 12.5H8.25V8.5H6.75C6.33579 8.5 6 8.16421 6 7.75C6 7.33579 6.33579 7 6.75 7H9ZM9 4.00391C9.55224 4.00391 9.99993 4.45168 10 5.00391C10 5.55619 9.55229 6.00391 9 6.00391C8.44771 6.00391 8 5.55619 8 5.00391C8.00007 4.45168 8.44776 4.00391 9 4.00391Z" fill="#6E6E6E"/>
</svg>
