<svg width="176" height="90" viewBox="0 0 176 90" fill="none" xmlns="http://www.w3.org/2000/svg">
<path d="M27.9218 0C16.3793 0 8.42239 5.06467 2.40096 10.7921C2.40096 10.7921 -0.0304329 13.0962 0.000288701 13.1664L25.2885 38.4547L50.5724 13.1664C45.7842 6.57442 36.7565 0 27.9218 0Z" fill="#FCF6F5"/>
<path d="M90.359 0.00343323C78.8164 0.00343323 70.8595 5.06811 64.8381 10.7955C64.8381 10.7955 62.6174 13.0382 62.5164 13.1698L31.2594 44.4312L56.5082 69.68L113.01 13.1698C108.221 6.57785 99.198 0.00343323 90.359 0.00343323Z" fill="#FCF6F5"/>
<path d="M152.978 0C141.436 0 133.479 5.06467 127.458 10.7921C127.458 10.7921 125.145 13.0523 125.057 13.1664L62.5297 75.7024L69.148 82.3207C79.387 92.5598 96.1479 92.5598 106.387 82.3207L175.55 13.1664H175.629C170.841 6.57442 161.817 0 152.978 0Z" fill="#FCF6F5"/>
</svg>
