<svg width="176" height="90" viewBox="0 0 176 90" fill="none" xmlns="http://www.w3.org/2000/svg">
<path d="M27.9218 0C16.3793 0 8.42239 5.06467 2.40096 10.7921C2.40096 10.7921 -0.0304329 13.0962 0.000288701 13.1664L25.2885 38.4547L50.5724 13.1664C45.7842 6.57442 36.7565 0 27.9218 0Z" fill="#FA4616"/>
<path d="M90.3589 0.00341797C78.8164 0.00341797 70.8595 5.06809 64.838 10.7955C64.838 10.7955 62.6173 13.0382 62.5164 13.1698L31.2593 44.4312L56.5081 69.68L113.01 13.1698C108.221 6.57784 99.198 0.00341797 90.3589 0.00341797Z" fill="#FA4616"/>
<path d="M152.978 -1.52588e-05C141.436 -1.52588e-05 133.479 5.06466 127.458 10.792C127.458 10.792 125.145 13.0523 125.057 13.1664L62.5297 75.7024L69.148 82.3207C79.387 92.5598 96.1479 92.5598 106.387 82.3207L175.55 13.1664H175.629C170.841 6.57441 161.817 -1.52588e-05 152.978 -1.52588e-05Z" fill="#FA4616"/>
</svg>
