<svg width="104" height="28" viewBox="0 0 104 28" fill="none" xmlns="http://www.w3.org/2000/svg">
<path d="M44.6776 22.5627L40.9193 7.50732H44.2724L46.7922 17.9278H46.8351L50.4658 7.50732H53.3487L56.9794 17.9278H57.0223L59.5635 7.50732H62.8953L59.1361 22.5627H55.7195L51.9175 12.4985H51.8756L48.0522 22.5627H44.6776Z" fill="white"/>
<path d="M63.9222 7.50732H67.0827V12.4985H67.1255C67.4047 11.9822 67.9571 11.5717 68.6038 11.2938C69.2033 11.0356 70.0735 10.8721 70.8418 10.8678C71.6872 10.8635 72.8563 11.0821 73.682 11.5115C74.5213 11.9693 75.156 12.5846 75.5825 13.3565C76.0382 14.1577 76.266 15.0587 76.266 16.0604V22.5619H73.1055V16.4889C73.1055 15.6026 72.8417 14.9158 72.315 14.4288C71.7882 13.9426 71.0688 13.699 70.1575 13.699C69.2462 13.699 68.5199 13.9563 67.9366 14.4718C67.367 14.9864 67.0827 15.6594 67.0827 16.4889V22.5619H63.9222V7.50732Z" fill="white"/>
<path d="M77.3666 16.8763C77.3666 15.9753 77.5371 15.1526 77.8788 14.4091C78.2206 13.6656 78.6865 13.0322 79.2775 12.5099C79.8685 11.9875 80.5485 11.5839 81.3168 11.2973C82.0859 11.0116 82.897 10.8679 83.7518 10.8679C84.6066 10.8679 85.464 11.0151 86.2399 11.3077C87.0159 11.6011 87.6926 12.009 88.269 12.5305C88.8454 13.0529 89.3011 13.6819 89.636 14.4186C89.97 15.1552 90.1379 15.9745 90.1379 16.8755C90.1379 17.7765 89.9666 18.6172 89.6257 19.3539C89.2839 20.0905 88.8214 20.7204 88.2373 21.2419C87.6532 21.7643 86.974 22.1679 86.198 22.4544C85.422 22.7401 84.6066 22.8839 83.7527 22.8839C82.8988 22.8839 82.062 22.7367 81.286 22.4441C80.51 22.1507 79.8334 21.7393 79.2569 21.2101C78.6805 20.6808 78.2214 20.0483 77.8797 19.3108C77.5379 18.5742 77.3675 17.7627 77.3675 16.8755L77.3666 16.8763ZM86.9774 16.8763C86.9774 15.9039 86.6819 15.1242 86.0909 14.5373C85.4999 13.9513 84.7205 13.6578 83.7527 13.6578C83.2825 13.6578 82.8482 13.737 82.4499 13.8936C82.0508 14.0511 81.7091 14.2688 81.4247 14.5485C81.1395 14.8273 80.9194 15.1673 80.7626 15.5674C80.6059 15.9684 80.528 16.4039 80.528 16.8763C80.528 17.3488 80.6059 17.7816 80.7626 18.1749C80.9194 18.5682 81.1438 18.9081 81.435 19.1938C81.7271 19.4804 82.0679 19.7015 82.4602 19.859C82.8516 20.0165 83.2825 20.0948 83.7527 20.0948C84.2229 20.0948 84.6563 20.0165 85.0554 19.859C85.4537 19.7015 85.7954 19.4838 86.0806 19.2041C86.365 18.9253 86.586 18.5854 86.7427 18.1852C86.8995 17.7851 86.9774 17.3488 86.9774 16.8763Z" fill="white"/>
<path d="M91.2813 10.8635H94.3142V12.4986H94.357C94.5548 12.0683 95.3891 11.3506 96.0443 11.1578C96.6987 10.9651 97.3607 10.8678 98.0305 10.8678C98.8844 10.8678 99.6673 11.0253 100.38 11.3403C101.092 11.6552 101.707 12.0847 102.227 12.6277C102.747 13.1715 103.152 13.8075 103.444 14.5372C103.736 15.267 103.882 16.0467 103.882 16.8762C103.882 17.7058 103.736 18.5285 103.444 19.2582C103.152 19.988 102.746 20.6205 102.227 21.1575C101.707 21.6936 101.088 22.1161 100.37 22.4234C99.6501 22.7306 98.8707 22.8846 98.0314 22.8846C97.7607 22.8846 97.4584 22.8597 97.1235 22.8098C96.7886 22.7598 96.4614 22.6841 96.1411 22.5843C95.8207 22.4845 95.5141 22.3588 95.2229 22.2091C94.9308 22.0585 94.685 21.8838 94.4863 21.6833H94.4435V27.3914H91.283V10.8635H91.2813ZM100.721 16.8762C100.721 15.9038 100.429 15.1276 99.8454 14.5484C99.2613 13.9693 98.4853 13.6793 97.5175 13.6793C97.1757 13.6793 96.8237 13.7369 96.4605 13.8505C96.0974 13.965 95.7668 14.1293 95.4679 14.3445C95.169 14.5588 94.9231 14.8169 94.7313 15.1173C94.5394 15.4176 94.4426 15.7609 94.4426 16.1473V17.5853C94.4426 18.0862 94.5882 18.5225 94.8803 18.8942C95.1715 19.266 95.539 19.5526 95.9801 19.7522C96.4357 19.9811 96.9547 20.0956 97.5389 20.0956C98.4922 20.0956 99.2613 19.7987 99.8454 19.2049C100.429 18.6111 100.721 17.8349 100.721 16.8771V16.8762Z" fill="white"/>
<path d="M5.84055 4.9126C3.50963 4.9126 1.9028 5.93537 0.68682 7.09196C0.68682 7.09196 0.19582 7.55726 0.202024 7.57144L5.30878 12.6782L10.4146 7.57144C9.44771 6.24025 7.62463 4.9126 5.84055 4.9126Z" fill="#FA4616"/>
<path d="M18.4492 4.91333C16.1183 4.91333 14.5114 5.9361 13.2955 7.0927C13.2955 7.0927 12.847 7.54559 12.8266 7.57217L6.51453 13.8852L11.6133 18.9839L23.0233 7.57217C22.0564 6.24098 20.2342 4.91333 18.4492 4.91333Z" fill="#FA4616"/>
<path d="M31.0947 4.9126C28.7638 4.9126 27.157 5.93537 25.941 7.09196C25.941 7.09196 25.4739 7.5484 25.4562 7.57144L12.8293 20.2001L14.1659 21.5366C16.2336 23.6043 19.6183 23.6043 21.686 21.5366L35.6529 7.57144H35.6688C34.7019 6.24025 32.8797 4.9126 31.0947 4.9126Z" fill="#FA4616"/>
</svg>
