<svg width="184" height="28" viewBox="0 0 184 28" fill="none" xmlns="http://www.w3.org/2000/svg">
<path d="M44.6777 22.5623L40.9194 7.50684H44.2726L46.7924 17.9273H46.8353L50.4659 7.50684H53.3489L56.9796 17.9273H57.0224L59.5637 7.50684H62.8954L59.1363 22.5623H55.7197L51.9177 12.4981H51.8757L48.0523 22.5623H44.6777Z" fill="#1C2024"/>
<path d="M63.9224 7.50684H67.0828V12.4981H67.1257C67.4049 11.9817 67.9573 11.5712 68.604 11.2933C69.2035 11.0351 70.0737 10.8716 70.842 10.8673C71.6874 10.863 72.8565 11.0816 73.6822 11.511C74.5215 11.9688 75.1562 12.5841 75.5827 13.356C76.0384 14.1572 76.2662 15.0582 76.2662 16.0599V22.5614H73.1057V16.4885C73.1057 15.6021 72.8419 14.9154 72.3152 14.4283C71.7884 13.9421 71.069 13.6985 70.1577 13.6985C69.2463 13.6985 68.52 13.9558 67.9368 14.4713C67.3672 14.9859 67.0828 15.6589 67.0828 16.4885V22.5614H63.9224V7.50684Z" fill="#1C2024"/>
<path d="M77.3667 16.8761C77.3667 15.9751 77.5371 15.1524 77.8789 14.4089C78.2206 13.6653 78.6866 13.032 79.2775 12.5096C79.8685 11.9873 80.5486 11.5837 81.3169 11.2971C82.086 11.0114 82.8971 10.8677 83.7519 10.8677C84.6067 10.8677 85.464 11.0148 86.24 11.3074C87.016 11.6009 87.6926 12.0088 88.2691 12.5303C88.8455 13.0526 89.3011 13.6817 89.636 14.4183C89.9701 15.155 90.1379 15.9742 90.1379 16.8752C90.1379 17.7762 89.9666 18.617 89.6257 19.3536C89.284 20.0903 88.8215 20.7202 88.2374 21.2417C87.6532 21.764 86.974 22.1676 86.198 22.4542C85.4221 22.7399 84.6067 22.8836 83.7527 22.8836C82.8988 22.8836 82.062 22.7365 81.286 22.4439C80.51 22.1504 79.8334 21.7391 79.257 21.2098C78.6806 20.6806 78.2215 20.0481 77.8797 19.3106C77.538 18.574 77.3676 17.7624 77.3676 16.8752L77.3667 16.8761ZM86.9775 16.8761C86.9775 15.9036 86.682 15.124 86.091 14.5371C85.5 13.951 84.7206 13.6576 83.7527 13.6576C83.2825 13.6576 82.8483 13.7368 82.45 13.8934C82.0509 14.0509 81.7091 14.2686 81.4248 14.5483C81.1396 14.8271 80.9194 15.167 80.7627 15.5672C80.606 15.9682 80.528 16.4036 80.528 16.8761C80.528 17.3485 80.606 17.7814 80.7627 18.1747C80.9194 18.5679 81.1439 18.9078 81.4351 19.1936C81.7271 19.4801 82.068 19.7013 82.4603 19.8588C82.8517 20.0162 83.2825 20.0946 83.7527 20.0946C84.223 20.0946 84.6563 20.0162 85.0555 19.8588C85.4537 19.7013 85.7955 19.4836 86.0807 19.2039C86.3651 18.9251 86.586 18.5851 86.7428 18.185C86.8995 17.7848 86.9775 17.3485 86.9775 16.8761Z" fill="#1C2024"/>
<path d="M91.2812 10.8633H94.3141V12.4983H94.3569C94.5548 12.0681 95.389 11.3504 96.0442 11.1576C96.6986 10.9648 97.3607 10.8676 98.0304 10.8676C98.8844 10.8676 99.6672 11.0251 100.38 11.34C101.092 11.655 101.707 12.0844 102.227 12.6274C102.747 13.1713 103.152 13.8072 103.444 14.537C103.736 15.2667 103.882 16.0464 103.882 16.876C103.882 17.7056 103.736 18.5282 103.444 19.258C103.152 19.9878 102.746 20.6203 102.227 21.1572C101.707 21.6934 101.088 22.1159 100.37 22.4231C99.6501 22.7303 98.8707 22.8844 98.0313 22.8844C97.7606 22.8844 97.4583 22.8594 97.1234 22.8095C96.7885 22.7596 96.4613 22.6839 96.141 22.584C95.8207 22.4842 95.5141 22.3586 95.2228 22.2088C94.9308 22.0582 94.685 21.8836 94.4863 21.683H94.4434V27.3911H91.283V10.8633H91.2812ZM100.721 16.876C100.721 15.9036 100.429 15.1273 99.8454 14.5482C99.2612 13.969 98.4852 13.679 97.5174 13.679C97.1757 13.679 96.8236 13.7367 96.4605 13.8503C96.0973 13.9647 95.7667 14.1291 95.4678 14.3442C95.1689 14.5585 94.9231 14.8167 94.7312 15.117C94.5394 15.4173 94.4426 15.7607 94.4426 16.1471V17.5851C94.4426 18.0859 94.5882 18.5222 94.8802 18.894C95.1715 19.2657 95.5389 19.5523 95.98 19.752C96.4357 19.9809 96.9547 20.0953 97.5388 20.0953C98.4921 20.0953 99.2612 19.7984 99.8454 19.2046C100.429 18.6109 100.721 17.8346 100.721 16.8768V16.876Z" fill="#1C2024"/>
<path d="M5.84073 4.9126C3.50981 4.9126 1.90298 5.93537 0.687003 7.09196C0.687003 7.09196 0.196003 7.55726 0.202207 7.57144L5.30896 12.6782L10.4148 7.57144C9.4479 6.24025 7.62481 4.9126 5.84073 4.9126Z" fill="#FA4616"/>
<path d="M18.4493 4.91309C16.1184 4.91309 14.5116 5.93585 13.2956 7.09245C13.2956 7.09245 12.8471 7.54534 12.8267 7.57193L6.51465 13.8849L11.6134 18.9837L23.0234 7.57193C22.0565 6.24074 20.2343 4.91309 18.4493 4.91309Z" fill="#FA4616"/>
<path d="M31.095 4.9126C28.764 4.9126 27.1572 5.93537 25.9412 7.09196C25.9412 7.09196 25.4742 7.5484 25.4564 7.57144L12.8296 20.2001L14.1661 21.5366C16.2338 23.6043 19.6185 23.6043 21.6862 21.5366L35.6531 7.57144H35.6691C34.7021 6.24025 32.8799 4.9126 31.095 4.9126Z" fill="#FA4616"/>
<path opacity="0.6" d="M116.59 23.276C112.657 23.276 109.828 20.838 109.667 17.434H112.404C112.542 19.573 114.336 21.022 116.59 21.022C118.936 21.022 120.339 19.688 120.339 18.239C120.339 16.721 119.304 15.893 116.153 15.893H115.256C112.427 15.893 109.966 14.214 109.966 11.523C109.966 9.039 111.99 6.486 116.13 6.486C120.109 6.486 122.524 8.832 122.754 12.144H120.017C119.856 9.936 118.292 8.763 116.13 8.763C113.83 8.763 112.703 9.89 112.703 11.523C112.703 12.857 113.347 13.57 116.521 13.57H117.119C120.661 13.57 123.053 15.571 123.053 18.239C123.053 20.654 120.868 23.276 116.59 23.276ZM127.92 10.971C127.92 11.431 127.92 11.799 127.874 12.305H127.92C128.909 10.764 130.473 9.982 132.244 9.982C135.349 9.982 138.063 12.305 138.063 16.606C138.063 20.999 135.349 23.368 132.244 23.368C130.404 23.368 128.84 22.563 127.92 21.045H127.874C127.92 21.574 127.92 21.965 127.92 22.448V26.91H125.39V10.35H127.92V10.971ZM131.6 21.183C133.9 21.206 135.418 19.343 135.418 16.606C135.418 13.938 133.9 12.144 131.6 12.167C129.254 12.19 127.897 14.145 127.897 16.583C127.897 19.159 129.254 21.16 131.6 21.183ZM145.944 23.368C142.402 23.368 139.596 20.953 139.596 16.675C139.596 12.374 142.402 9.982 145.944 9.982C149.486 9.982 152.292 12.374 152.292 16.675C152.292 20.953 149.486 23.368 145.944 23.368ZM145.944 21.183C148.014 21.16 149.67 19.734 149.67 16.675C149.67 13.593 148.014 12.19 145.944 12.167C143.874 12.144 142.218 13.593 142.218 16.675C142.218 19.734 143.874 21.206 145.944 21.183ZM154.623 23V10.35H157.107V12.305H157.153C157.82 11.224 158.97 9.982 160.833 9.982H161.914V12.167H160.557C158.487 12.167 157.153 13.432 157.153 15.87V23H154.623ZM170.508 12.558H167.081V19.458C167.081 20.309 167.61 20.792 168.369 20.792H170.508V23H168.139C165.793 23 164.551 21.988 164.551 19.619V12.558H162.481V10.35H164.551V6.9H167.081V10.35H170.508V12.558ZM176.954 23.368C174.01 23.368 171.848 21.436 171.687 18.814H174.332C174.47 20.194 175.482 21.183 176.954 21.183C178.61 21.183 179.714 20.355 179.714 19.274C179.714 18.055 179.047 17.549 176.862 17.549H176.172C173.803 17.549 171.917 16.238 171.917 13.961C171.917 12.006 173.619 9.982 177.046 9.982C180.036 9.982 181.922 11.891 182.106 14.444H179.461C179.346 12.995 178.495 12.167 177.046 12.167C175.413 12.167 174.539 12.926 174.539 13.961C174.539 14.95 174.976 15.318 177.161 15.341H177.644C180.496 15.341 182.336 16.928 182.336 19.274C182.336 21.321 180.496 23.368 176.954 23.368Z" fill="black"/>
</svg>
