<svg width="184" height="28" viewBox="0 0 184 28" fill="none" xmlns="http://www.w3.org/2000/svg">
<path d="M44.6775 22.5627L40.9192 7.50732H44.2724L46.7922 17.9278H46.835L50.4657 7.50732H53.3487L56.9794 17.9278H57.0222L59.5634 7.50732H62.8952L59.136 22.5627H55.7195L51.9175 12.4985H51.8755L48.0521 22.5627H44.6775Z" fill="white"/>
<path d="M63.9221 7.50732H67.0826V12.4985H67.1254C67.4046 11.9822 67.9571 11.5717 68.6037 11.2938C69.2033 11.0356 70.0735 10.8721 70.8418 10.8678C71.6871 10.8635 72.8562 11.0821 73.6819 11.5115C74.5213 11.9693 75.1559 12.5846 75.5825 13.3565C76.0381 14.1577 76.266 15.0587 76.266 16.0604V22.5619H73.1055V16.4889C73.1055 15.6026 72.8417 14.9158 72.3149 14.4288C71.7882 13.9426 71.0687 13.699 70.1574 13.699C69.2461 13.699 68.5198 13.9563 67.9365 14.4718C67.367 14.9864 67.0826 15.6594 67.0826 16.4889V22.5619H63.9221V7.50732Z" fill="white"/>
<path d="M77.3667 16.8763C77.3667 15.9753 77.5371 15.1526 77.8789 14.4091C78.2206 13.6656 78.6866 13.0322 79.2775 12.5099C79.8685 11.9875 80.5486 11.5839 81.3169 11.2973C82.086 11.0116 82.8971 10.8679 83.7519 10.8679C84.6067 10.8679 85.464 11.0151 86.24 11.3077C87.016 11.6011 87.6926 12.009 88.2691 12.5305C88.8455 13.0529 89.3011 13.6819 89.636 14.4186C89.9701 15.1552 90.1379 15.9745 90.1379 16.8755C90.1379 17.7765 89.9666 18.6172 89.6257 19.3539C89.284 20.0905 88.8215 20.7204 88.2374 21.2419C87.6532 21.7643 86.974 22.1679 86.198 22.4544C85.4221 22.7401 84.6067 22.8839 83.7527 22.8839C82.8988 22.8839 82.062 22.7367 81.286 22.4441C80.51 22.1507 79.8334 21.7393 79.257 21.2101C78.6806 20.6808 78.2215 20.0483 77.8797 19.3108C77.538 18.5742 77.3676 17.7627 77.3676 16.8755L77.3667 16.8763ZM86.9775 16.8763C86.9775 15.9039 86.682 15.1242 86.091 14.5373C85.5 13.9513 84.7206 13.6578 83.7527 13.6578C83.2825 13.6578 82.8483 13.737 82.45 13.8936C82.0509 14.0511 81.7091 14.2688 81.4248 14.5485C81.1396 14.8273 80.9194 15.1673 80.7627 15.5674C80.606 15.9684 80.528 16.4039 80.528 16.8763C80.528 17.3488 80.606 17.7816 80.7627 18.1749C80.9194 18.5682 81.1439 18.9081 81.4351 19.1938C81.7271 19.4804 82.068 19.7015 82.4603 19.859C82.8517 20.0165 83.2825 20.0948 83.7527 20.0948C84.223 20.0948 84.6563 20.0165 85.0555 19.859C85.4537 19.7015 85.7955 19.4838 86.0807 19.2041C86.3651 18.9253 86.586 18.5854 86.7428 18.1852C86.8995 17.7851 86.9775 17.3488 86.9775 16.8763Z" fill="white"/>
<path d="M91.2812 10.8635H94.3141V12.4986H94.3569C94.5548 12.0683 95.389 11.3506 96.0442 11.1578C96.6986 10.9651 97.3607 10.8678 98.0304 10.8678C98.8844 10.8678 99.6672 11.0253 100.38 11.3403C101.092 11.6552 101.707 12.0847 102.227 12.6277C102.747 13.1715 103.152 13.8075 103.444 14.5372C103.736 15.267 103.882 16.0467 103.882 16.8762C103.882 17.7058 103.736 18.5285 103.444 19.2582C103.152 19.988 102.746 20.6205 102.227 21.1575C101.707 21.6936 101.088 22.1161 100.37 22.4234C99.6501 22.7306 98.8707 22.8846 98.0313 22.8846C97.7606 22.8846 97.4583 22.8597 97.1234 22.8098C96.7885 22.7598 96.4613 22.6841 96.141 22.5843C95.8207 22.4845 95.5141 22.3588 95.2228 22.2091C94.9308 22.0585 94.685 21.8838 94.4863 21.6833H94.4434V27.3914H91.283V10.8635H91.2812ZM100.721 16.8762C100.721 15.9038 100.429 15.1276 99.8454 14.5484C99.2612 13.9693 98.4852 13.6793 97.5174 13.6793C97.1757 13.6793 96.8236 13.7369 96.4605 13.8505C96.0973 13.965 95.7667 14.1293 95.4678 14.3445C95.1689 14.5588 94.9231 14.8169 94.7312 15.1173C94.5394 15.4176 94.4426 15.7609 94.4426 16.1473V17.5853C94.4426 18.0862 94.5882 18.5225 94.8802 18.8942C95.1715 19.266 95.5389 19.5526 95.98 19.7522C96.4357 19.9811 96.9547 20.0956 97.5388 20.0956C98.4921 20.0956 99.2612 19.7987 99.8454 19.2049C100.429 18.6111 100.721 17.8349 100.721 16.8771V16.8762Z" fill="white"/>
<path d="M5.84049 4.9126C3.50957 4.9126 1.90274 5.93537 0.686759 7.09196C0.686759 7.09196 0.195759 7.55726 0.201963 7.57144L5.30872 12.6782L10.4146 7.57144C9.44765 6.24025 7.62457 4.9126 5.84049 4.9126Z" fill="#FA4616"/>
<path d="M18.4491 4.91333C16.1182 4.91333 14.5113 5.9361 13.2953 7.0927C13.2953 7.0927 12.8469 7.54559 12.8265 7.57217L6.5144 13.8852L11.6132 18.9839L23.0232 7.57217C22.0562 6.24098 20.234 4.91333 18.4491 4.91333Z" fill="#FA4616"/>
<path d="M31.0947 4.9126C28.7638 4.9126 27.157 5.93537 25.941 7.09196C25.941 7.09196 25.4739 7.5484 25.4562 7.57144L12.8293 20.2001L14.1659 21.5366C16.2336 23.6043 19.6183 23.6043 21.686 21.5366L35.6529 7.57144H35.6688C34.7019 6.24025 32.8797 4.9126 31.0947 4.9126Z" fill="#FA4616"/>
<path opacity="0.6" d="M116.59 23.276C112.657 23.276 109.828 20.838 109.667 17.434H112.404C112.542 19.573 114.336 21.022 116.59 21.022C118.936 21.022 120.339 19.688 120.339 18.239C120.339 16.721 119.304 15.893 116.153 15.893H115.256C112.427 15.893 109.966 14.214 109.966 11.523C109.966 9.039 111.99 6.486 116.13 6.486C120.109 6.486 122.524 8.832 122.754 12.144H120.017C119.856 9.936 118.292 8.763 116.13 8.763C113.83 8.763 112.703 9.89 112.703 11.523C112.703 12.857 113.347 13.57 116.521 13.57H117.119C120.661 13.57 123.053 15.571 123.053 18.239C123.053 20.654 120.868 23.276 116.59 23.276ZM127.92 10.971C127.92 11.431 127.92 11.799 127.874 12.305H127.92C128.909 10.764 130.473 9.982 132.244 9.982C135.349 9.982 138.063 12.305 138.063 16.606C138.063 20.999 135.349 23.368 132.244 23.368C130.404 23.368 128.84 22.563 127.92 21.045H127.874C127.92 21.574 127.92 21.965 127.92 22.448V26.91H125.39V10.35H127.92V10.971ZM131.6 21.183C133.9 21.206 135.418 19.343 135.418 16.606C135.418 13.938 133.9 12.144 131.6 12.167C129.254 12.19 127.897 14.145 127.897 16.583C127.897 19.159 129.254 21.16 131.6 21.183ZM145.944 23.368C142.402 23.368 139.596 20.953 139.596 16.675C139.596 12.374 142.402 9.982 145.944 9.982C149.486 9.982 152.292 12.374 152.292 16.675C152.292 20.953 149.486 23.368 145.944 23.368ZM145.944 21.183C148.014 21.16 149.67 19.734 149.67 16.675C149.67 13.593 148.014 12.19 145.944 12.167C143.874 12.144 142.218 13.593 142.218 16.675C142.218 19.734 143.874 21.206 145.944 21.183ZM154.623 23V10.35H157.107V12.305H157.153C157.82 11.224 158.97 9.982 160.833 9.982H161.914V12.167H160.557C158.487 12.167 157.153 13.432 157.153 15.87V23H154.623ZM170.508 12.558H167.081V19.458C167.081 20.309 167.61 20.792 168.369 20.792H170.508V23H168.139C165.793 23 164.551 21.988 164.551 19.619V12.558H162.481V10.35H164.551V6.9H167.081V10.35H170.508V12.558ZM176.954 23.368C174.01 23.368 171.848 21.436 171.687 18.814H174.332C174.47 20.194 175.482 21.183 176.954 21.183C178.61 21.183 179.714 20.355 179.714 19.274C179.714 18.055 179.047 17.549 176.862 17.549H176.172C173.803 17.549 171.917 16.238 171.917 13.961C171.917 12.006 173.619 9.982 177.046 9.982C180.036 9.982 181.922 11.891 182.106 14.444H179.461C179.346 12.995 178.495 12.167 177.046 12.167C175.413 12.167 174.539 12.926 174.539 13.961C174.539 14.95 174.976 15.318 177.161 15.341H177.644C180.496 15.341 182.336 16.928 182.336 19.274C182.336 21.321 180.496 23.368 176.954 23.368Z" fill="white"/>
</svg>
