<svg width="19" height="19" viewBox="0 0 19 19" fill="none" xmlns="http://www.w3.org/2000/svg">
<path d="M9.11914 0.446806C8.5918 0.575712 8.08789 0.728056 7.61133 0.903837C5.03321 1.86087 3.22852 3.50149 2.0293 5.45462C1.31836 6.61868 0.822268 7.88821 0.501955 9.18118L9.78321 18.4624C10.3105 18.3335 10.8145 18.1812 11.291 18.0054C13.8691 17.0484 15.6738 15.4077 16.873 13.4546C17.5879 12.2906 18.0801 11.021 18.4004 9.73196L9.11914 0.446806ZM18.7949 7.47415C19.0332 5.2554 18.8496 3.09134 18.4941 1.36477C18.3887 0.860869 17.9863 0.470243 17.4746 0.384306C15.2012 0.00539973 13.1816 -0.084444 11.3965 0.0757122L18.7949 7.47415ZM7.50196 18.8296L0.107424 11.4351C-0.130857 13.6538 0.0527365 15.8179 0.408205 17.5445C0.513674 18.0484 0.916018 18.439 1.42774 18.5249C3.70117 18.9038 5.72071 18.9937 7.50586 18.8335L7.50196 18.8296ZM9.63477 5.88821C9.87696 5.64602 10.2754 5.64602 10.5176 5.88821L13.0176 8.38821C13.2598 8.6304 13.2598 9.02884 13.0176 9.27102C12.7754 9.51321 12.377 9.51321 12.1348 9.27102L9.63477 6.77103C9.39258 6.52884 9.39258 6.1304 9.63477 5.88821ZM7.75977 7.76321C8.00196 7.52102 8.40039 7.52102 8.64258 7.76321L11.1426 10.2632C11.3848 10.5054 11.3848 10.9038 11.1426 11.146C10.9004 11.3882 10.502 11.3882 10.2598 11.146L7.75977 8.64602C7.51758 8.40384 7.51758 8.0054 7.75977 7.76321ZM5.88477 9.63821C6.12696 9.39603 6.52539 9.39603 6.76758 9.63821L9.26758 12.1382C9.50977 12.3804 9.50977 12.7788 9.26758 13.021C9.02539 13.2632 8.62696 13.2632 8.38477 13.021L5.88477 10.521C5.64258 10.2788 5.64258 9.8804 5.88477 9.63821Z" fill="#7B7B7B"/>
</svg>
