<svg width="20" height="20" viewBox="0 0 20 20" fill="none" xmlns="http://www.w3.org/2000/svg">
<path d="M16.252 0C15.7676 0 15.3066 0.191406 14.9629 0.535156L8.81055 6.6875C8.40039 7.09766 8.03711 7.55078 7.72852 8.03906L4.87305 12.5625C4.58789 13.0117 4.25586 13.4297 3.87695 13.8086L2.41992 15.2617L4.42383 17.2656L5.88086 15.8086C6.25586 15.4336 6.67383 15.0977 7.12695 14.8125L11.6504 11.957C12.1387 11.6484 12.5918 11.2852 13.002 10.875L19.1543 4.72656C19.4941 4.38672 19.6895 3.92188 19.6895 3.4375C19.6895 2.95312 19.498 2.49219 19.1543 2.14844L17.541 0.535156C17.1973 0.191406 16.7363 0 16.252 0ZM19.6895 16.875C19.6895 16.0462 19.3602 15.2513 18.7742 14.6653C18.1881 14.0792 17.3933 13.75 16.5645 13.75C15.7357 13.75 14.9408 14.0792 14.3547 14.6653C13.7687 15.2513 13.4395 16.0462 13.4395 16.875C13.4395 17.7038 13.7687 18.4987 14.3547 19.0847C14.9408 19.6708 15.7357 20 16.5645 20C17.3933 20 18.1881 19.6708 18.7742 19.0847C19.3602 18.4987 19.6895 17.7038 19.6895 16.875ZM0.275391 15.5859C-0.0917969 15.9531 -0.0917969 16.5469 0.275391 16.9102L2.77539 19.4102C3.14258 19.7773 3.73633 19.7773 4.09961 19.4102C4.46289 19.043 4.4668 18.4492 4.09961 18.0859L1.60352 15.5859C1.23633 15.2188 0.642578 15.2188 0.279297 15.5859H0.275391Z" fill="#7B7B7B"/>
</svg>
