<svg width="17" height="20" viewBox="0 0 17 20" fill="none" xmlns="http://www.w3.org/2000/svg">
<path d="M3.125 1.875L2.60547 2.39453C2.13672 2.86328 1.875 3.49609 1.875 4.16016V9.33203C1.875 9.75 2.08203 10.1406 2.42969 10.3711L2.84375 10.6445C3.40234 11.0195 4.12109 11.0625 4.72266 10.7617L4.84766 10.6992C4.94922 10.6484 5.04297 10.5898 5.13281 10.5234L7.0625 9.07812C7.32031 8.88281 7.67578 8.88281 7.93359 9.07812C8.33203 9.37891 8.32031 9.98047 7.90625 10.2617L2.90625 13.6719C2.26172 14.1133 1.875 14.8438 1.875 15.625H14.375L15.5039 9.41406C15.5859 8.97266 15.625 8.52344 15.625 8.07422V7.5C15.625 3.35938 12.2656 0 8.125 0H2.64844C2.22266 0 1.875 0.347656 1.875 0.773438C1.875 1.06641 2.03906 1.33203 2.30078 1.46484L3.125 1.875ZM4.0625 4.53125C4.0625 4.32405 4.14481 4.12534 4.29132 3.97882C4.43784 3.83231 4.63655 3.75 4.84375 3.75C5.05095 3.75 5.24966 3.83231 5.39618 3.97882C5.54269 4.12534 5.625 4.32405 5.625 4.53125C5.625 4.73845 5.54269 4.93716 5.39618 5.08368C5.24966 5.23019 5.05095 5.3125 4.84375 5.3125C4.63655 5.3125 4.43784 5.23019 4.29132 5.08368C4.14481 4.93716 4.0625 4.73845 4.0625 4.53125ZM0.257812 18.4922C0.09375 18.6562 0 18.8828 0 19.1172C0 19.6055 0.394531 20 0.882812 20H15.3633C15.8516 20 16.2461 19.6055 16.2461 19.1172C16.2461 18.8828 16.1523 18.6562 15.9883 18.4922L14.375 16.875H1.875L0.257812 18.4922Z" fill="#7B7B7B"/>
</svg>
