<svg width="18" height="18" viewBox="0 0 18 18" fill="none" xmlns="http://www.w3.org/2000/svg">
<path d="M1.50017 12.833L1.98635 13.3098L1.42814 13.8587C1.65406 14.2106 1.90691 14.5445 2.18443 14.8574L14.8612 2.17986C14.5471 1.91036 14.2164 1.66093 13.8708 1.43306L13.3126 1.98191L12.8354 1.50504L13.2676 1.07316C11.5625 0.156826 9.60728 -0.185845 7.69193 0.0959785C5.77658 0.377802 4.00315 1.26911 2.6347 2.63768C1.26624 4.00625 0.375668 5.77919 0.0950752 7.69351C-0.185517 9.60782 0.15882 11.5615 1.07701 13.2648L1.50017 12.833ZM11.575 2.7647L12.0522 3.24157L10.8007 4.50123L10.3235 4.02436L11.575 2.7647ZM9.06302 5.28401L9.5312 5.76088L8.27973 7.02054L7.80255 6.54367L9.06302 5.28401ZM6.54207 7.80333L7.01925 8.2802L5.75878 9.53086L5.2816 9.05399L6.54207 7.80333ZM4.02112 10.3136L4.4983 10.7995L3.23782 12.0592L2.76064 11.5823L4.02112 10.3136ZM4.12916 16.5669L4.68737 16.0181L5.16455 16.495L4.73239 16.9268C6.43748 17.8432 8.39272 18.1858 10.3081 17.904C12.2234 17.6222 13.9969 16.7309 15.3653 15.3623C16.7338 13.9937 17.6243 12.2208 17.9049 10.3065C18.1855 8.39218 17.8412 6.43847 16.923 4.73516L16.4998 5.16705L16.0136 4.69018L16.5719 4.14132C16.3459 3.7894 16.0931 3.45549 15.8156 3.1426L3.13879 15.8201C3.45287 16.0896 3.78365 16.3391 4.12916 16.5669ZM14.7622 5.94983L15.2394 6.4267L13.9789 7.68636L13.5017 7.20049L14.7622 5.94983ZM12.2412 8.46914L12.7184 8.94601L11.4579 10.1967L10.9807 9.7198L12.2412 8.46914ZM9.72027 10.9795L10.1975 11.4563L8.94598 12.716L8.4598 12.2391L9.72027 10.9795ZM7.19932 13.4988L7.6765 13.9756L6.41602 15.2353L5.93884 14.7584L7.19932 13.4988Z" fill="#7B7B7B"/>
</svg>
