<svg width="19" height="14" viewBox="0 0 19 14" fill="none" xmlns="http://www.w3.org/2000/svg">
<path d="M18.2459 6.4602C17.4174 2.7145 16.1705 0.715279 14.3209 0.169186C13.9321 0.055142 13.5288 -0.00183288 13.1237 4.49442e-05C12.5881 4.49442e-05 12.1217 0.130514 11.6283 0.268795C11.0338 0.435592 10.3584 0.625045 9.37366 0.625045C8.38889 0.625045 7.71311 0.435982 7.11741 0.269186C6.62366 0.130514 6.15764 4.49442e-05 5.62366 4.49442e-05C5.20468 -0.00140782 4.78754 0.0553856 4.3842 0.168795C2.54436 0.712545 1.29827 2.71098 0.45764 6.45786C-0.446266 10.4899 -0.00134394 13.0356 1.7053 13.6262C1.93923 13.7087 2.18538 13.7512 2.43342 13.752C3.60256 13.752 4.54006 12.7782 5.18069 11.9809C5.90452 11.0786 6.75178 10.6207 9.37366 10.6207C11.7155 10.6207 12.6846 10.9383 13.5217 11.9809C14.0479 12.6364 14.5451 13.095 15.0412 13.3836C15.701 13.7672 16.3604 13.8524 17.0006 13.6325C18.0092 13.2883 18.5873 12.3786 18.7194 10.9278C18.8197 9.81528 18.6651 8.35395 18.2459 6.4602ZM7.49866 6.25004H6.24866V7.50004C6.24866 7.6658 6.18281 7.82478 6.0656 7.94199C5.94839 8.0592 5.78942 8.12504 5.62366 8.12504C5.4579 8.12504 5.29892 8.0592 5.18171 7.94199C5.0645 7.82478 4.99866 7.6658 4.99866 7.50004V6.25004H3.74866C3.5829 6.25004 3.42392 6.1842 3.30671 6.06699C3.1895 5.94978 3.12366 5.7908 3.12366 5.62504C3.12366 5.45928 3.1895 5.30031 3.30671 5.1831C3.42392 5.06589 3.5829 5.00004 3.74866 5.00004H4.99866V3.75004C4.99866 3.58428 5.0645 3.42531 5.18171 3.3081C5.29892 3.19089 5.4579 3.12504 5.62366 3.12504C5.78942 3.12504 5.94839 3.19089 6.0656 3.3081C6.18281 3.42531 6.24866 3.58428 6.24866 3.75004V5.00004H7.49866C7.66442 5.00004 7.82339 5.06589 7.9406 5.1831C8.05781 5.30031 8.12366 5.45928 8.12366 5.62504C8.12366 5.7908 8.05781 5.94978 7.9406 6.06699C7.82339 6.1842 7.66442 6.25004 7.49866 6.25004ZM10.7799 6.40629C10.6254 6.40629 10.4743 6.36047 10.3459 6.27463C10.2174 6.18879 10.1173 6.06677 10.0581 5.92402C9.99899 5.78126 9.98352 5.62418 10.0137 5.47263C10.0438 5.32108 10.1182 5.18188 10.2275 5.07262C10.3367 4.96336 10.4759 4.88895 10.6275 4.85881C10.779 4.82866 10.9361 4.84413 11.0789 4.90326C11.2216 4.96239 11.3436 5.06253 11.4295 5.191C11.5153 5.31948 11.5612 5.47053 11.5612 5.62504C11.5612 5.83224 11.4788 6.03096 11.3323 6.17747C11.1858 6.32398 10.9871 6.40629 10.7799 6.40629ZM12.4987 8.12504C12.3441 8.12504 12.1929 8.07917 12.0644 7.99324C11.9359 7.90731 11.8358 7.78518 11.7767 7.64231C11.7176 7.49944 11.7023 7.34226 11.7326 7.19066C11.7629 7.03906 11.8375 6.89986 11.9469 6.79068C12.0564 6.68149 12.1958 6.60724 12.3474 6.57732C12.4991 6.54739 12.6563 6.56315 12.799 6.62258C12.9417 6.68201 13.0636 6.78244 13.1492 6.91118C13.2348 7.03991 13.2803 7.19115 13.2799 7.34575C13.2794 7.55261 13.1969 7.75082 13.0504 7.89691C12.9039 8.043 12.7055 8.12504 12.4987 8.12504ZM12.4987 4.68754C12.3441 4.68754 12.1931 4.64173 12.0646 4.55588C11.9361 4.47004 11.836 4.34802 11.7769 4.20527C11.7177 4.06251 11.7023 3.90543 11.7324 3.75388C11.7626 3.60233 11.837 3.46313 11.9462 3.35387C12.0555 3.24461 12.1947 3.1702 12.3462 3.14006C12.4978 3.10991 12.6549 3.12538 12.7976 3.18451C12.9404 3.24364 13.0624 3.34378 13.1482 3.47226C13.2341 3.60073 13.2799 3.75178 13.2799 3.90629C13.2799 4.11349 13.1976 4.31221 13.0511 4.45872C12.9046 4.60523 12.7059 4.68754 12.4987 4.68754ZM14.2174 6.40629C14.0629 6.40629 13.9118 6.36047 13.7834 6.27463C13.6549 6.18879 13.5548 6.06677 13.4956 5.92402C13.4365 5.78126 13.421 5.62418 13.4512 5.47263C13.4813 5.32108 13.5557 5.18188 13.665 5.07262C13.7742 4.96336 13.9134 4.88895 14.065 4.85881C14.2165 4.82866 14.3736 4.84413 14.5164 4.90326C14.6591 4.96239 14.7811 5.06253 14.867 5.191C14.9528 5.31948 14.9987 5.47053 14.9987 5.62504C14.9987 5.83224 14.9163 6.03096 14.7698 6.17747C14.6233 6.32398 14.4246 6.40629 14.2174 6.40629Z" fill="#7B7B7B"/>
</svg>
