<svg width="19" height="19" viewBox="0 0 19 19" fill="none" xmlns="http://www.w3.org/2000/svg">
<path d="M9.5 0C4.25216 0 0 4.25216 0 9.5C0 14.7387 4.2613 19 9.5 19C14.7478 19 19 14.7478 19 9.5C19 4.2613 14.7387 0 9.5 0ZM15.3142 3.68582C15.7024 4.07404 16.0495 4.49423 16.3464 4.94183C16.3784 4.9875 16.3875 5.05144 16.3647 5.10168L15.707 6.98798C15.6887 7.03365 15.6567 7.07476 15.6111 7.09303L12.9849 8.28966C12.9209 8.31707 12.8478 8.30793 12.793 8.26226L10.2079 6.08822C10.1878 6.07057 10.1716 6.0488 10.1606 6.02437C10.1496 5.99995 10.1439 5.97344 10.144 5.94663V3.06466C10.144 3.00529 10.176 2.94591 10.2262 2.91394L11.98 1.72187C12.0257 1.6899 12.0851 1.68077 12.1399 1.69904C13.3183 2.10553 14.4053 2.77692 15.3142 3.68582ZM11.9389 17.2781C11.9207 17.3329 11.875 17.374 11.8202 17.3877C11.0757 17.607 10.2947 17.7166 9.5 17.7166C8.70072 17.7166 7.92428 17.6024 7.17981 17.3877C7.125 17.3695 7.07933 17.3284 7.06106 17.2781L6.31202 15.3142C6.29375 15.2639 6.29832 15.2091 6.32115 15.1635L7.33966 13.2315C7.37163 13.1721 7.43558 13.1356 7.49952 13.1356H11.4959C11.5644 13.1356 11.6238 13.1721 11.6558 13.2315L12.6743 15.1635C12.6971 15.2091 12.7017 15.2639 12.6834 15.3142L11.9389 17.2781ZM8.86058 3.0738V5.95577C8.86058 6.01058 8.83774 6.06082 8.79663 6.09736L6.20697 8.26683C6.15216 8.3125 6.07909 8.32163 6.01514 8.29423L3.38894 7.0976C3.34327 7.07476 3.30673 7.03822 3.29303 6.99255L2.63534 5.11082C2.61707 5.05601 2.62163 4.99663 2.65361 4.95096C2.95048 4.50337 3.2976 4.08317 3.68582 3.69495C4.59471 2.78606 5.68173 2.11466 6.86466 1.71731C6.91947 1.69904 6.97885 1.70817 7.02452 1.74014L8.77837 2.93221C8.82861 2.95505 8.86058 3.00986 8.86058 3.0738ZM1.35649 9.86995L3.00529 8.44495C3.0601 8.39928 3.13774 8.38558 3.20168 8.41755L5.59495 9.50457C5.64519 9.5274 5.68173 9.57308 5.69543 9.62788L6.36226 12.245C6.37139 12.2906 6.36683 12.3363 6.34856 12.3774L5.28894 14.3825C5.25697 14.4418 5.19303 14.4829 5.12452 14.4784L3.02356 14.451C2.96875 14.451 2.91394 14.4236 2.8774 14.3779C1.94111 13.1127 1.39303 11.6101 1.29255 10.0207C1.29255 9.9613 1.31538 9.90649 1.35649 9.86995ZM13.7065 14.3779L12.6514 12.3774C12.6286 12.3363 12.624 12.2906 12.6377 12.245L13.3046 9.62788C13.3183 9.57308 13.3548 9.5274 13.405 9.50457L15.7983 8.41755C15.8623 8.39014 15.9399 8.39928 15.9947 8.44495L17.6435 9.86995C17.6846 9.90649 17.712 9.9613 17.7075 10.0207C17.6115 11.6101 17.0589 13.1082 16.1226 14.3779C16.0906 14.4236 16.0358 14.451 15.9764 14.451L13.8709 14.4784C13.8024 14.4738 13.7385 14.4373 13.7065 14.3779Z" fill="#7B7B7B"/>
</svg>
