<svg width="20" height="20" viewBox="0 0 20 20" fill="none" xmlns="http://www.w3.org/2000/svg">
<path d="M9.375 0.625V12.5184C9.58333 12.5061 9.79167 12.5 10 12.5C10.2083 12.5 10.4167 12.5061 10.625 12.5184V7.90234L17.5 4.375L9.375 0.625Z" fill="#7B7B7B"/>
<path d="M18.0823 17.8711C17.7487 16.1973 16.7151 14.7953 15.0893 13.8164C13.8226 13.0527 12.2561 12.5938 10.6249 12.5V16.2418H9.3749V12.5C7.74247 12.5938 6.17607 13.0527 4.90927 13.8164C3.28466 14.7953 2.2499 16.1973 1.9163 17.8711C1.83818 18.2543 1.88974 19.375 1.88974 19.375H18.1089C18.1089 19.375 18.1589 18.2543 18.0823 17.8711Z" fill="#7B7B7B"/>
</svg>
