<svg width="20" height="16" viewBox="0 0 20 16" fill="none" xmlns="http://www.w3.org/2000/svg">
<path d="M18.2759 9.73145H10.4095L2.51207 0.348657C2.33221 0.145359 2.08079 0.0211173 1.81148 0.00245308C1.54216 -0.0162111 1.27629 0.0721812 1.07062 0.248761C0.864952 0.425341 0.735772 0.676119 0.710658 0.947564C0.685544 1.21901 0.766487 1.48961 0.936207 1.70162L9.13966 11.4527L9.14483 11.4588L12.4534 15.3906C12.6157 15.5821 12.8172 15.7358 13.044 15.8411C13.2709 15.9463 13.5176 16.0005 13.7672 16H18.2759C18.7331 16 19.1717 15.8165 19.495 15.49C19.8183 15.1634 20 14.7205 20 14.2587V11.4727C20 11.0109 19.8183 10.568 19.495 10.2415C19.1717 9.91491 18.7331 9.73145 18.2759 9.73145ZM12.1681 11.821H14.4828V13.9105H13.9267L12.1681 11.821ZM17.931 13.9105H16.5517V11.821H17.931V13.9105ZM12.2121 6.6172L17.4879 0.348657C17.6678 0.145359 17.9192 0.0211173 18.1885 0.00245308C18.4578 -0.0162111 18.7237 0.0721812 18.9294 0.248761C19.135 0.425341 19.2642 0.676119 19.2893 0.947564C19.3145 1.21901 19.2335 1.48961 19.0638 1.70162L13.7879 7.97016C13.7012 8.07854 13.5938 8.16829 13.4722 8.23413C13.3506 8.29997 13.2171 8.34057 13.0797 8.35353C12.9423 8.3665 12.8037 8.35157 12.6721 8.30963C12.5406 8.26768 12.4186 8.19957 12.3135 8.1093C12.2083 8.01904 12.1221 7.90844 12.0599 7.78402C11.9978 7.6596 11.9609 7.52387 11.9514 7.38483C11.942 7.24579 11.9602 7.10625 12.0049 6.97441C12.0497 6.84258 12.1201 6.72113 12.2121 6.6172ZM8.4069 12.7508C8.19789 12.5715 7.92693 12.4833 7.65357 12.5057C7.38021 12.528 7.12683 12.6591 6.94914 12.8701L6.07328 13.9105H5.51724V11.8149C5.78043 11.786 6.02266 11.6564 6.19406 11.4526C6.36546 11.2489 6.45299 10.9865 6.43863 10.7195C6.42427 10.4526 6.30911 10.2013 6.11686 10.0175C5.92461 9.8337 5.66991 9.73132 5.40517 9.73145H1.72414C1.26687 9.73145 0.828327 9.91491 0.504988 10.2415C0.18165 10.568 0 11.0109 0 11.4727V14.2587C0 14.7205 0.18165 15.1634 0.504988 15.49C0.828327 15.8165 1.26687 16 1.72414 16H6.23276C6.48238 16.0005 6.72913 15.9463 6.95596 15.8411C7.1828 15.7358 7.3843 15.5821 7.54655 15.3906L8.525 14.2274C8.61359 14.1228 8.68082 14.0015 8.72285 13.8705C8.76487 13.7396 8.78086 13.6015 8.76988 13.4643C8.75891 13.3271 8.72119 13.1934 8.6589 13.071C8.5966 12.9485 8.51096 12.8397 8.4069 12.7508ZM2.06897 11.821H3.44828V13.9105H2.06897V11.821Z" fill="#7B7B7B"/>
</svg>
