<svg width="16" height="17" viewBox="0 0 16 17" fill="none" xmlns="http://www.w3.org/2000/svg">
<path d="M11.25 0H7.5C6.33968 0 5.22688 0.460936 4.40641 1.28141C3.58594 2.10188 3.125 3.21468 3.125 4.375V6.85391C3.12757 7.01547 3.06877 7.17199 2.96046 7.2919C2.85215 7.41181 2.7024 7.48618 2.54141 7.5C2.45591 7.50568 2.37017 7.49371 2.28949 7.46486C2.20882 7.436 2.13494 7.39086 2.07245 7.33225C2.00995 7.27364 1.96017 7.2028 1.92621 7.12414C1.89224 7.04548 1.87481 6.96068 1.875 6.875V4.89844C1.87496 4.84635 1.86191 4.7951 1.83702 4.74934C1.81213 4.70359 1.7762 4.66478 1.7325 4.63644C1.68879 4.60811 1.6387 4.59115 1.58677 4.5871C1.53484 4.58306 1.48272 4.59206 1.43516 4.61328C1.00603 4.8153 0.643228 5.13523 0.389107 5.53571C0.134985 5.93619 3.0872e-05 6.4007 0 6.875V9.15547C0.000641473 9.43923 0.0969804 9.71449 0.273438 9.93672C0.289062 9.95547 0.305469 9.97344 0.322656 9.99063L3.125 12.7609V15.625C3.125 15.9565 3.2567 16.2745 3.49112 16.5089C3.72554 16.7433 4.04348 16.875 4.375 16.875H13.125C13.4565 16.875 13.7745 16.7433 14.0089 16.5089C14.2433 16.2745 14.375 15.9565 14.375 15.625V12.5875L15.5766 8.38125C15.6086 8.26948 15.6249 8.15378 15.625 8.0375V4.375C15.625 3.21468 15.1641 2.10188 14.3436 1.28141C13.5231 0.460936 12.4103 0 11.25 0ZM11.5297 13.1906C11.6031 13.2274 11.6686 13.2782 11.7225 13.3402C11.7763 13.4023 11.8173 13.4743 11.8433 13.5522C11.8693 13.6301 11.8796 13.7124 11.8738 13.7943C11.868 13.8763 11.8461 13.9562 11.8094 14.0297C11.7726 14.1031 11.7218 14.1686 11.6598 14.2225C11.5977 14.2763 11.5257 14.3173 11.4478 14.3433C11.3699 14.3693 11.2876 14.3796 11.2057 14.3738C11.1237 14.368 11.0438 14.3461 10.9703 14.3094L8.75 13.1984L6.52969 14.3094C6.45623 14.3461 6.37626 14.368 6.29433 14.3738C6.21241 14.3796 6.13015 14.3693 6.05223 14.3433C5.97432 14.3173 5.90228 14.2763 5.84024 14.2225C5.77819 14.1686 5.72735 14.1031 5.69062 14.0297C5.6539 13.9562 5.632 13.8763 5.62617 13.7943C5.62035 13.7124 5.63072 13.6301 5.65669 13.5522C5.68266 13.4743 5.72373 13.4023 5.77754 13.3402C5.83135 13.2782 5.89685 13.2274 5.97031 13.1906L7.35234 12.5L5.97031 11.8094C5.89685 11.7726 5.83135 11.7218 5.77754 11.6598C5.72373 11.5977 5.68266 11.5257 5.65669 11.4478C5.63072 11.3699 5.62035 11.2876 5.62617 11.2057C5.632 11.1237 5.6539 11.0438 5.69062 10.9703C5.72735 10.8969 5.77819 10.8314 5.84024 10.7775C5.90228 10.7237 5.97432 10.6827 6.05223 10.6567C6.20959 10.6042 6.38133 10.6164 6.52969 10.6906L8.75 11.8016L10.9703 10.6906C11.0438 10.6539 11.1237 10.632 11.2057 10.6262C11.2876 10.6204 11.3699 10.6307 11.4478 10.6567C11.5257 10.6827 11.5977 10.7237 11.6598 10.7775C11.7218 10.8314 11.7726 10.8969 11.8094 10.9703C11.8461 11.0438 11.868 11.1237 11.8738 11.2057C11.8796 11.2876 11.8693 11.3699 11.8433 11.4478C11.8173 11.5257 11.7763 11.5977 11.7225 11.6598C11.6686 11.7218 11.6031 11.7726 11.5297 11.8094L10.1477 12.5L11.5297 13.1906Z" fill="#7B7B7B"/>
</svg>
