<svg width="18" height="17" viewBox="0 0 18 17" fill="none" xmlns="http://www.w3.org/2000/svg">
<path d="M10.0851 7.47866e-05C9.3842 0.00265291 8.6876 0.0717155 8.01928 0.185465C4.6315 0.762028 2.72193 2.27402 1.69154 4.39734C2.91088 4.30226 4.1135 4.20109 5.28397 4.20836C6.22592 4.21422 7.14709 4.29027 8.03943 4.49625C8.63123 4.63297 9.0024 5.14652 9.11783 5.7359C9.23322 6.32527 9.15135 7.02183 8.92037 7.74968L8.90916 7.785L8.89088 7.81726C8.58768 8.35007 7.94311 8.77421 7.12154 9.22328C6.29998 9.67238 5.29752 10.1097 4.2985 10.49C3.29951 10.8703 2.30584 11.1923 1.5026 11.4055C1.21924 11.4807 0.961583 11.5414 0.7317 11.5874C0.820567 12.8034 0.988028 14.0632 1.20076 15.3366C6.67412 13.8425 11.8844 12.216 16.9629 10.522C17.976 8.78543 18.1319 7.14515 17.6256 5.57148C16.7509 2.85254 15.2467 1.38992 13.5157 0.643044C12.4338 0.176247 11.2535 -0.00422209 10.0852 7.47866e-05H10.0851ZM3.67061 4.96406C3.3167 4.98398 2.95713 5.00922 2.59514 5.03578L0.90209 10.8305C1.03428 10.7996 1.17303 10.7655 1.32217 10.726C1.47857 10.6844 1.64522 10.6373 1.8167 10.5871C2.20818 9.37347 3.50811 5.45371 3.67061 4.96406ZM1.84639 5.09148C1.42186 5.12375 0.993887 5.15609 0.560918 5.18406C0.548418 5.20144 0.533028 5.22105 0.509434 5.27261C0.447715 5.40738 0.377598 5.6405 0.317559 5.92589C0.197442 6.49668 0.107793 7.28242 0.0556449 8.06953C0.0035746 8.85664 -0.0119331 9.64914 0.00904347 10.2407C0.0195122 10.5365 0.0399027 10.7839 0.0653715 10.9423C0.0672465 10.9542 0.0684184 10.9544 0.0704497 10.9653C0.0884184 10.9649 0.110801 10.9636 0.13084 10.9628L1.84639 5.09148ZM7.33529 5.1123C6.72607 5.1123 6.21576 5.60379 6.21576 6.21199C6.21576 6.82019 6.72607 7.31179 7.33529 7.31179C7.94451 7.31179 8.45482 6.82023 8.45482 6.21199C8.45482 5.60379 7.94451 5.1123 7.33529 5.1123ZM7.33529 5.81543C7.57436 5.81543 7.7517 5.99382 7.7517 6.21199C7.7517 6.43019 7.57436 6.60867 7.33529 6.60867C7.09623 6.60867 6.91889 6.43015 6.91889 6.21199C6.91889 5.99382 7.09623 5.81543 7.33529 5.81543ZM16.3271 11.4742C11.4909 13.0753 6.52611 14.6135 1.32178 16.0326C1.33791 16.1231 1.35342 16.2135 1.3699 16.304C7.1358 15.263 11.3689 13.6101 15.8762 12.0398C16.037 11.8501 16.1866 11.6617 16.3272 11.4742L16.3271 11.4742Z" fill="#7B7B7B"/>
</svg>
