<svg width="20" height="20" viewBox="0 0 20 20" fill="none" xmlns="http://www.w3.org/2000/svg">
<path d="M19.3828 11.5811C20.6133 8.54199 20 4.92871 17.5391 2.46387C14.2617 -0.821289 8.94532 -0.821289 5.66797 2.46387L3.48047 4.65527L11.7422 12.917C13.543 10.4912 16.8789 9.89355 19.3828 11.5811ZM10.8711 14.6943L2.26172 6.08887C1.19532 7.8584 1.41407 10.1904 2.9375 11.7178L4.28516 13.0693L0.261724 16.5615C-0.0742139 16.8545 -0.0937451 17.3701 0.222661 17.6865L2.3086 19.7764C2.6211 20.0928 3.13672 20.0732 3.42969 19.7373L6.91797 15.7021L8.3125 17.0967C9.08204 17.8662 10.0547 18.2881 11.0586 18.3975C10.7813 17.7334 10.6289 17.0068 10.6289 16.2451C10.625 15.7061 10.7266 15.1904 10.8711 14.6943ZM16.25 12.499C14.1797 12.499 12.5 14.1787 12.5 16.249C12.5 18.3193 14.1797 19.999 16.25 19.999C18.3203 19.999 20 18.3193 20 16.249C20 14.1787 18.3203 12.499 16.25 12.499Z" fill="black"/>
<path d="M19.3828 11.5811C20.6133 8.54199 20 4.92871 17.5391 2.46387C14.2617 -0.821289 8.94532 -0.821289 5.66797 2.46387L3.48047 4.65527L11.7422 12.917C13.543 10.4912 16.8789 9.89355 19.3828 11.5811ZM10.8711 14.6943L2.26172 6.08887C1.19532 7.8584 1.41407 10.1904 2.9375 11.7178L4.28516 13.0693L0.261724 16.5615C-0.0742139 16.8545 -0.0937451 17.3701 0.222661 17.6865L2.3086 19.7764C2.6211 20.0928 3.13672 20.0732 3.42969 19.7373L6.91797 15.7021L8.3125 17.0967C9.08204 17.8662 10.0547 18.2881 11.0586 18.3975C10.7813 17.7334 10.6289 17.0068 10.6289 16.2451C10.625 15.7061 10.7266 15.1904 10.8711 14.6943ZM16.25 12.499C14.1797 12.499 12.5 14.1787 12.5 16.249C12.5 18.3193 14.1797 19.999 16.25 19.999C18.3203 19.999 20 18.3193 20 16.249C20 14.1787 18.3203 12.499 16.25 12.499Z" fill="#7B7B7B"/>
<path d="M19.3828 11.5811C20.6133 8.54199 20 4.92871 17.5391 2.46387C14.2617 -0.821289 8.94532 -0.821289 5.66797 2.46387L3.48047 4.65527L11.7422 12.917C13.543 10.4912 16.8789 9.89355 19.3828 11.5811ZM10.8711 14.6943L2.26172 6.08887C1.19532 7.8584 1.41407 10.1904 2.9375 11.7178L4.28516 13.0693L0.261724 16.5615C-0.0742139 16.8545 -0.0937451 17.3701 0.222661 17.6865L2.3086 19.7764C2.6211 20.0928 3.13672 20.0732 3.42969 19.7373L6.91797 15.7021L8.3125 17.0967C9.08204 17.8662 10.0547 18.2881 11.0586 18.3975C10.7813 17.7334 10.6289 17.0068 10.6289 16.2451C10.625 15.7061 10.7266 15.1904 10.8711 14.6943ZM16.25 12.499C14.1797 12.499 12.5 14.1787 12.5 16.249C12.5 18.3193 14.1797 19.999 16.25 19.999C18.3203 19.999 20 18.3193 20 16.249C20 14.1787 18.3203 12.499 16.25 12.499Z" stroke="black"/>
</svg>
